<svg width="1440" height="9700" viewBox="0 0 1440 9700" fill="none" xmlns="http://www.w3.org/2000/svg">
<g filter="url(#filter0_f_513_24)">
<path d="M220.182 5276.42C431.279 5152.92 545.603 4836.69 368.532 4667.99C209.124 4516.12 -53.7787 4570.51 -190.209 4743.32C-331.326 4922.06 -323.106 5235.07 -112.299 5321.24C8.97624 5370.81 107.097 5342.58 220.182 5276.42Z" fill="url(#paint0_radial_513_24)" fill-opacity="0.5"/>
</g>
<g filter="url(#filter1_f_513_24)">
<path d="M1471.18 7276.42C1682.28 7152.92 1796.6 6836.69 1619.53 6667.99C1460.12 6516.12 1197.22 6570.51 1060.79 6743.32C919.674 6922.06 927.894 7235.07 1138.7 7321.24C1259.98 7370.81 1358.1 7342.58 1471.18 7276.42Z" fill="url(#paint1_radial_513_24)" fill-opacity="0.7"/>
</g>
<g filter="url(#filter2_f_513_24)">
<path d="M1519.18 8234.42C1730.28 8110.92 1844.6 7794.69 1667.53 7625.99C1508.12 7474.12 1245.22 7528.51 1108.79 7701.32C967.674 7880.06 975.894 8193.07 1186.7 8279.24C1307.98 8328.81 1406.1 8300.58 1519.18 8234.42Z" fill="url(#paint2_radial_513_24)" fill-opacity="0.9"/>
</g>
<g filter="url(#filter3_f_513_24)">
<path d="M228.894 7374.27C104.852 7520.56 102.542 7784.25 277.428 7862.99C434.871 7933.87 615.22 7825.24 671.195 7661.9C729.093 7492.95 641.581 7263.52 463.206 7254.62C360.589 7249.49 295.343 7295.91 228.894 7374.27Z" fill="url(#paint3_radial_513_24)" fill-opacity="0.7"/>
</g>
<g filter="url(#filter4_f_513_24)">
<path d="M-55.8468 6678.02C-179.889 6824.31 -182.199 7088 -7.31232 7166.74C150.13 7237.62 330.479 7128.99 386.454 6965.65C444.352 6796.7 356.84 6567.27 178.465 6558.36C75.8478 6553.24 10.6023 6599.66 -55.8468 6678.02Z" fill="url(#paint4_radial_513_24)" fill-opacity="0.9"/>
</g>
<g filter="url(#filter5_f_513_24)">
<circle r="384" transform="matrix(-1 5.18986e-09 5.18986e-09 1 146 9116)" fill="#7FDEFF" fill-opacity="0.7"/>
</g>
<g filter="url(#filter6_f_513_24)">
<path d="M1417.18 1181.42C1628.28 1057.92 1742.6 741.693 1565.53 572.994C1406.12 421.122 1143.22 475.508 1006.79 648.318C865.674 827.064 873.894 1140.07 1084.7 1226.24C1205.98 1275.81 1304.1 1247.58 1417.18 1181.42Z" fill="url(#paint5_radial_513_24)" fill-opacity="0.8"/>
</g>
<g filter="url(#filter7_f_513_24)">
<path d="M409.182 1097.42C620.279 973.918 734.603 657.693 557.532 488.994C398.124 337.122 135.221 391.508 -1.20851 564.318C-142.326 743.064 -134.106 1056.07 76.7015 1142.24C197.976 1191.81 296.097 1163.58 409.182 1097.42Z" fill="url(#paint6_radial_513_24)" fill-opacity="0.7"/>
</g>
<g filter="url(#filter8_f_513_24)">
<path d="M643.146 2977.55C805.328 2882.66 893.161 2639.71 757.121 2510.1C634.651 2393.42 432.667 2435.21 327.85 2567.97C219.432 2705.3 225.748 2945.78 387.707 3011.98C480.881 3050.07 556.265 3028.38 643.146 2977.55Z" fill="url(#paint7_radial_513_24)" fill-opacity="0.7"/>
</g>
<g filter="url(#filter9_f_513_24)">
<path d="M1474.98 3077C1649.89 2974.67 1744.61 2712.66 1597.9 2572.88C1465.82 2447.04 1247.98 2492.11 1134.94 2635.29C1018.02 2783.4 1024.83 3042.74 1199.49 3114.14C1299.98 3155.22 1381.28 3131.82 1474.98 3077Z" fill="url(#paint8_radial_513_24)"/>
</g>
<g filter="url(#filter10_f_513_24)">
<path d="M208.182 2771.42C419.279 2647.92 533.603 2331.69 356.532 2162.99C197.124 2011.12 -65.7787 2065.51 -202.209 2238.32C-343.326 2417.06 -335.106 2730.07 -124.299 2816.24C-3.02376 2865.81 95.0974 2837.58 208.182 2771.42Z" fill="url(#paint9_radial_513_24)" fill-opacity="0.9"/>
</g>
<g filter="url(#filter11_f_513_24)">
<circle r="384" transform="matrix(-1 5.18986e-09 5.18986e-09 1 1386 2284)" fill="#7FDEFF"/>
</g>
<g filter="url(#filter12_f_513_24)">
<path d="M983.033 3532.28C1086.38 3310.62 1000.51 2985.51 758.913 2947.51C541.415 2913.29 356.14 3107.58 342.247 3327.31C327.877 3554.6 512.703 3807.34 735.095 3758.28C863.035 3730.06 927.668 3651.02 983.033 3532.28Z" fill="url(#paint10_radial_513_24)" fill-opacity="0.7"/>
</g>
<g filter="url(#filter13_f_513_24)">
<path d="M1567.5 4292.85C1670.85 4071.19 1584.98 3746.08 1343.38 3708.07C1125.89 3673.86 940.61 3868.15 926.717 4087.88C912.347 4315.16 1097.17 4567.91 1319.57 4518.85C1447.51 4490.63 1512.14 4411.59 1567.5 4292.85Z" fill="url(#paint11_radial_513_24)" fill-opacity="0.9"/>
</g>
<g filter="url(#filter14_f_513_24)">
<circle r="476" transform="matrix(-1 5.18986e-09 5.18986e-09 1 107 3744)" fill="#7FDEFF" fill-opacity="0.7"/>
</g>
<g filter="url(#filter15_f_513_24)">
<path d="M1664.18 6072.42C1875.28 5948.92 1989.6 5632.69 1812.53 5463.99C1653.12 5312.12 1390.22 5366.51 1253.79 5539.32C1112.67 5718.06 1120.89 6031.07 1331.7 6117.24C1452.98 6166.81 1551.1 6138.58 1664.18 6072.42Z" fill="url(#paint12_radial_513_24)" fill-opacity="0.8"/>
</g>
<circle cx="74.5" cy="5737.5" r="40.4208" stroke="#F8F7F7" stroke-width="34.1584"/>
<circle cx="1383" cy="5367" r="64.6733" stroke="#F8F7F7" stroke-width="54.6535"/>
<circle cx="783" cy="6140" r="64.6733" stroke="#F8F7F7" stroke-width="54.6535"/>
<circle cx="21.5" cy="8121.5" r="69.9455" stroke="#EEEEEE" stroke-width="59.1089"/>
<circle cx="519" cy="7153" r="48.6634" stroke="#F8F7F7" stroke-width="32.6733"/>
<path d="M1042.19 5531.1L1131.81 5474.08L1136.38 5580.2L1042.19 5531.1Z" stroke="#F8F7F7" stroke-width="25"/>
<path d="M981.187 7446.1L1070.81 7389.08L1075.38 7495.2L981.187 7446.1Z" stroke="#F8F7F7" stroke-width="25"/>
<circle cx="1425.5" cy="8846.5" r="69.9455" stroke="#EEEEEE" stroke-width="59.1089"/>
<path d="M1256.68 1718.88L1276.58 1590.82L1377.53 1672.09L1256.68 1718.88Z" stroke="#F8F7F7" stroke-width="30"/>
<defs>
<filter id="filter0_f_513_24" x="-685.214" y="4179.13" width="1540.96" height="1567.28" filterUnits="userSpaceOnUse" color-interpolation-filters="sRGB">
<feFlood flood-opacity="0" result="BackgroundImageFix"/>
<feBlend mode="normal" in="SourceGraphic" in2="BackgroundImageFix" result="shape"/>
<feGaussianBlur stdDeviation="200" result="effect1_foregroundBlur_513_24"/>
</filter>
<filter id="filter1_f_513_24" x="565.786" y="6179.13" width="1540.96" height="1567.28" filterUnits="userSpaceOnUse" color-interpolation-filters="sRGB">
<feFlood flood-opacity="0" result="BackgroundImageFix"/>
<feBlend mode="normal" in="SourceGraphic" in2="BackgroundImageFix" result="shape"/>
<feGaussianBlur stdDeviation="200" result="effect1_foregroundBlur_513_24"/>
</filter>
<filter id="filter2_f_513_24" x="613.786" y="7137.13" width="1540.96" height="1567.28" filterUnits="userSpaceOnUse" color-interpolation-filters="sRGB">
<feFlood flood-opacity="0" result="BackgroundImageFix"/>
<feBlend mode="normal" in="SourceGraphic" in2="BackgroundImageFix" result="shape"/>
<feGaussianBlur stdDeviation="200" result="effect1_foregroundBlur_513_24"/>
</filter>
<filter id="filter3_f_513_24" x="-259.61" y="6854.23" width="1348.55" height="1430.82" filterUnits="userSpaceOnUse" color-interpolation-filters="sRGB">
<feFlood flood-opacity="0" result="BackgroundImageFix"/>
<feBlend mode="normal" in="SourceGraphic" in2="BackgroundImageFix" result="shape"/>
<feGaussianBlur stdDeviation="200" result="effect1_foregroundBlur_513_24"/>
</filter>
<filter id="filter4_f_513_24" x="-544.351" y="6157.98" width="1348.55" height="1430.82" filterUnits="userSpaceOnUse" color-interpolation-filters="sRGB">
<feFlood flood-opacity="0" result="BackgroundImageFix"/>
<feBlend mode="normal" in="SourceGraphic" in2="BackgroundImageFix" result="shape"/>
<feGaussianBlur stdDeviation="200" result="effect1_foregroundBlur_513_24"/>
</filter>
<filter id="filter5_f_513_24" x="-438" y="8532" width="1168" height="1168" filterUnits="userSpaceOnUse" color-interpolation-filters="sRGB">
<feFlood flood-opacity="0" result="BackgroundImageFix"/>
<feBlend mode="normal" in="SourceGraphic" in2="BackgroundImageFix" result="shape"/>
<feGaussianBlur stdDeviation="100" result="effect1_foregroundBlur_513_24"/>
</filter>
<filter id="filter6_f_513_24" x="511.786" y="84.1265" width="1540.96" height="1567.28" filterUnits="userSpaceOnUse" color-interpolation-filters="sRGB">
<feFlood flood-opacity="0" result="BackgroundImageFix"/>
<feBlend mode="normal" in="SourceGraphic" in2="BackgroundImageFix" result="shape"/>
<feGaussianBlur stdDeviation="200" result="effect1_foregroundBlur_513_24"/>
</filter>
<filter id="filter7_f_513_24" x="-496.214" y="0.126465" width="1540.96" height="1567.28" filterUnits="userSpaceOnUse" color-interpolation-filters="sRGB">
<feFlood flood-opacity="0" result="BackgroundImageFix"/>
<feBlend mode="normal" in="SourceGraphic" in2="BackgroundImageFix" result="shape"/>
<feGaussianBlur stdDeviation="200" result="effect1_foregroundBlur_513_24"/>
</filter>
<filter id="filter8_f_513_24" x="-145.141" y="2041.83" width="1369.27" height="1389.49" filterUnits="userSpaceOnUse" color-interpolation-filters="sRGB">
<feFlood flood-opacity="0" result="BackgroundImageFix"/>
<feBlend mode="normal" in="SourceGraphic" in2="BackgroundImageFix" result="shape"/>
<feGaussianBlur stdDeviation="200" result="effect1_foregroundBlur_513_24"/>
</filter>
<filter id="filter9_f_513_24" x="656.222" y="2099.25" width="1413.94" height="1435.75" filterUnits="userSpaceOnUse" color-interpolation-filters="sRGB">
<feFlood flood-opacity="0" result="BackgroundImageFix"/>
<feBlend mode="normal" in="SourceGraphic" in2="BackgroundImageFix" result="shape"/>
<feGaussianBlur stdDeviation="200" result="effect1_foregroundBlur_513_24"/>
</filter>
<filter id="filter10_f_513_24" x="-697.214" y="1674.13" width="1540.96" height="1567.28" filterUnits="userSpaceOnUse" color-interpolation-filters="sRGB">
<feFlood flood-opacity="0" result="BackgroundImageFix"/>
<feBlend mode="normal" in="SourceGraphic" in2="BackgroundImageFix" result="shape"/>
<feGaussianBlur stdDeviation="200" result="effect1_foregroundBlur_513_24"/>
</filter>
<filter id="filter11_f_513_24" x="802" y="1700" width="1168" height="1168" filterUnits="userSpaceOnUse" color-interpolation-filters="sRGB">
<feFlood flood-opacity="0" result="BackgroundImageFix"/>
<feBlend mode="normal" in="SourceGraphic" in2="BackgroundImageFix" result="shape"/>
<feGaussianBlur stdDeviation="100" result="effect1_foregroundBlur_513_24"/>
</filter>
<filter id="filter12_f_513_24" x="-58.5384" y="2543.57" width="1484.62" height="1620.88" filterUnits="userSpaceOnUse" color-interpolation-filters="sRGB">
<feFlood flood-opacity="0" result="BackgroundImageFix"/>
<feBlend mode="normal" in="SourceGraphic" in2="BackgroundImageFix" result="shape"/>
<feGaussianBlur stdDeviation="200" result="effect1_foregroundBlur_513_24"/>
</filter>
<filter id="filter13_f_513_24" x="525.932" y="3304.14" width="1484.62" height="1620.88" filterUnits="userSpaceOnUse" color-interpolation-filters="sRGB">
<feFlood flood-opacity="0" result="BackgroundImageFix"/>
<feBlend mode="normal" in="SourceGraphic" in2="BackgroundImageFix" result="shape"/>
<feGaussianBlur stdDeviation="200" result="effect1_foregroundBlur_513_24"/>
</filter>
<filter id="filter14_f_513_24" x="-569" y="3068" width="1352" height="1352" filterUnits="userSpaceOnUse" color-interpolation-filters="sRGB">
<feFlood flood-opacity="0" result="BackgroundImageFix"/>
<feBlend mode="normal" in="SourceGraphic" in2="BackgroundImageFix" result="shape"/>
<feGaussianBlur stdDeviation="100" result="effect1_foregroundBlur_513_24"/>
</filter>
<filter id="filter15_f_513_24" x="758.786" y="4975.13" width="1540.96" height="1567.28" filterUnits="userSpaceOnUse" color-interpolation-filters="sRGB">
<feFlood flood-opacity="0" result="BackgroundImageFix"/>
<feBlend mode="normal" in="SourceGraphic" in2="BackgroundImageFix" result="shape"/>
<feGaussianBlur stdDeviation="200" result="effect1_foregroundBlur_513_24"/>
</filter>
<radialGradient id="paint0_radial_513_24" cx="0" cy="0" r="1" gradientUnits="userSpaceOnUse" gradientTransform="translate(85.6022 4539.12) rotate(90) scale(843.333 856.851)">
<stop offset="0.336458" stop-color="#FFA800"/>
<stop offset="0.445833" stop-color="#FF0000"/>
<stop offset="1" stop-color="#FF47D6"/>
</radialGradient>
<radialGradient id="paint1_radial_513_24" cx="0" cy="0" r="1" gradientUnits="userSpaceOnUse" gradientTransform="translate(1336.6 6539.12) rotate(90) scale(843.333 856.851)">
<stop offset="0.442708" stop-color="#FFA800"/>
<stop offset="0.78125" stop-color="#FF47D6"/>
<stop offset="0.828125" stop-color="#0085FF"/>
</radialGradient>
<radialGradient id="paint2_radial_513_24" cx="0" cy="0" r="1" gradientUnits="userSpaceOnUse" gradientTransform="translate(1384.6 7497.12) rotate(90) scale(843.333 856.851)">
<stop offset="0.336458" stop-color="#FFA800"/>
<stop offset="0.445833" stop-color="#FF0000"/>
<stop offset="1" stop-color="#FF47D6"/>
</radialGradient>
<radialGradient id="paint3_radial_513_24" cx="0" cy="0" r="1" gradientUnits="userSpaceOnUse" gradientTransform="translate(520.269 7884.72) rotate(-109.374) scale(661.359 671.96)">
<stop offset="0.442708" stop-color="#FFA800"/>
<stop offset="0.78125" stop-color="#FF47D6"/>
<stop offset="0.828125" stop-color="#0085FF"/>
</radialGradient>
<radialGradient id="paint4_radial_513_24" cx="0" cy="0" r="1" gradientUnits="userSpaceOnUse" gradientTransform="translate(235.529 7188.47) rotate(-109.374) scale(661.359 671.96)">
<stop offset="0.336458" stop-color="#FFA800"/>
<stop offset="0.445833" stop-color="#FF0000"/>
<stop offset="1" stop-color="#FF47D6"/>
</radialGradient>
<radialGradient id="paint5_radial_513_24" cx="0" cy="0" r="1" gradientUnits="userSpaceOnUse" gradientTransform="translate(1282.6 444.124) rotate(90) scale(843.333 856.851)">
<stop offset="0.336458" stop-color="#FFA800"/>
<stop offset="0.614583" stop-color="#0085FF"/>
<stop offset="1" stop-color="#FF47D6"/>
</radialGradient>
<radialGradient id="paint6_radial_513_24" cx="0" cy="0" r="1" gradientUnits="userSpaceOnUse" gradientTransform="translate(274.602 360.124) rotate(90) scale(843.333 856.851)">
<stop offset="0.442708" stop-color="#FFA800"/>
<stop offset="0.78125" stop-color="#FF47D6"/>
<stop offset="0.828125" stop-color="#0085FF"/>
</radialGradient>
<radialGradient id="paint7_radial_513_24" cx="0" cy="0" r="1" gradientUnits="userSpaceOnUse" gradientTransform="translate(539.751 2411.1) rotate(90) scale(647.919 658.304)">
<stop offset="0.336458" stop-color="#FFA800"/>
<stop offset="0.614583" stop-color="#0085FF"/>
<stop offset="1" stop-color="#FF47D6"/>
</radialGradient>
<radialGradient id="paint8_radial_513_24" cx="0" cy="0" r="1" gradientUnits="userSpaceOnUse" gradientTransform="translate(1363.47 2466.1) rotate(90) scale(698.761 709.961)">
<stop offset="0.336458" stop-color="#FFA800"/>
<stop offset="0.445833" stop-color="#FF0000"/>
<stop offset="1" stop-color="#FF47D6"/>
</radialGradient>
<radialGradient id="paint9_radial_513_24" cx="0" cy="0" r="1" gradientUnits="userSpaceOnUse" gradientTransform="translate(73.6022 2034.12) rotate(90) scale(843.333 856.851)">
<stop offset="0.336458" stop-color="#FFA800"/>
<stop offset="0.445833" stop-color="#FF0000"/>
<stop offset="1" stop-color="#FF47D6"/>
</radialGradient>
<radialGradient id="paint10_radial_513_24" cx="0" cy="0" r="1" gradientUnits="userSpaceOnUse" gradientTransform="translate(452.914 3002.48) rotate(55.3273) scale(843.333 856.851)">
<stop offset="0.442708" stop-color="#FFA800"/>
<stop offset="0.78125" stop-color="#FF47D6"/>
<stop offset="0.828125" stop-color="#0085FF"/>
</radialGradient>
<radialGradient id="paint11_radial_513_24" cx="0" cy="0" r="1" gradientUnits="userSpaceOnUse" gradientTransform="translate(1037.38 3763.04) rotate(55.3273) scale(843.333 856.851)">
<stop offset="0.336458" stop-color="#FFA800"/>
<stop offset="0.445833" stop-color="#FF0000"/>
<stop offset="1" stop-color="#FF47D6"/>
</radialGradient>
<radialGradient id="paint12_radial_513_24" cx="0" cy="0" r="1" gradientUnits="userSpaceOnUse" gradientTransform="translate(1529.6 5335.12) rotate(90) scale(843.333 856.851)">
<stop offset="0.336458" stop-color="#FFA800"/>
<stop offset="0.614583" stop-color="#0085FF"/>
<stop offset="1" stop-color="#FF47D6"/>
</radialGradient>
</defs>
</svg>
