<svg width="30" height="24" viewBox="0 0 30 24" fill="none" xmlns="http://www.w3.org/2000/svg">
<path d="M26.2953 0.831055H3.28692C2.41517 0.831055 1.57913 1.16484 0.962715 1.75897C0.346299 2.35311 0 3.15893 0 3.99916V19.8397C0 20.6799 0.346299 21.4858 0.962715 22.0799C1.57913 22.674 2.41517 23.0078 3.28692 23.0078H26.2953C27.1671 23.0078 28.0031 22.674 28.6195 22.0799C29.2359 21.4858 29.5822 20.6799 29.5822 19.8397V3.99916C29.5822 3.15893 29.2359 2.35311 28.6195 1.75897C28.0031 1.16484 27.1671 0.831055 26.2953 0.831055ZM26.2953 3.99916V5.63232L15.6309 11.7468C15.3768 11.8924 15.0867 11.9692 14.7911 11.9692C14.4955 11.9692 14.2054 11.8924 13.9513 11.7468L3.28692 5.63232V3.99916H26.2953ZM3.28692 19.8397V9.31842L12.2701 14.4682C13.0325 14.9052 13.9032 15.1359 14.7903 15.1359C15.6774 15.1359 16.5481 14.9052 17.3105 14.4682L26.2953 9.31842V19.8397H3.28692Z" fill="#7773AC"/>
</svg>
