<svg width="22" height="27" viewBox="0 0 22 27" fill="none" xmlns="http://www.w3.org/2000/svg">
<path fill-rule="evenodd" clip-rule="evenodd" d="M10.7911 0C7.95795 0 5.24082 1.10333 3.23747 3.06726C1.23411 5.03119 0.108643 7.69486 0.108643 10.4723V10.5321C0.111924 12.4952 0.689198 14.4162 1.77206 16.0675L2.6877 17.2793L9.57027 26.3303C9.71242 26.5161 9.89674 26.6669 10.1086 26.7708C10.3205 26.8746 10.5542 26.9287 10.7911 26.9287C11.028 26.9287 11.2617 26.8746 11.4736 26.7708C11.6855 26.6669 11.8698 26.5161 12.012 26.3303L18.8945 17.2793L19.8102 16.0675C20.893 14.4162 21.4703 12.4952 21.4736 10.5321V10.4723C21.4736 7.69486 20.3481 5.03119 18.3448 3.06726C16.3414 1.10333 13.6243 0 10.7911 0ZM10.7911 16.4564C9.17217 16.4564 7.61952 15.826 6.47475 14.7037C5.32998 13.5815 4.68685 12.0594 4.68685 10.4723C4.68685 8.88518 5.32998 7.36308 6.47475 6.24084C7.61952 5.11859 9.17217 4.48812 10.7911 4.48812C12.4101 4.48812 13.9627 5.11859 15.1075 6.24084C16.2523 7.36308 16.8954 8.88518 16.8954 10.4723C16.8954 12.0594 16.2523 13.5815 15.1075 14.7037C13.9627 15.826 12.4101 16.4564 10.7911 16.4564Z" fill="#7773AC"/>
</svg>
