<svg width="28" height="27" viewBox="0 0 28 27" fill="none" xmlns="http://www.w3.org/2000/svg">
<path d="M16.4681 2.89606C16.5754 2.50914 16.8378 2.17917 17.1976 1.97869C17.5573 1.77822 17.985 1.72366 18.3864 1.82701C20.4232 2.35488 22.2803 3.38938 23.7717 4.82685C25.2631 6.26432 26.3364 8.0543 26.884 10.0175C26.9372 10.2091 26.9506 10.4089 26.9236 10.6055C26.8967 10.8021 26.8298 10.9917 26.7268 11.1634C26.6238 11.3351 26.4867 11.4855 26.3234 11.6062C26.16 11.7268 25.9737 11.8153 25.7749 11.8665C25.5761 11.9177 25.3688 11.9307 25.1648 11.9047C24.9608 11.8787 24.7641 11.8142 24.586 11.7149C24.4079 11.6156 24.2517 11.4835 24.1266 11.3261C24.0014 11.1687 23.9097 10.989 23.8565 10.7974C23.4518 9.34675 22.6587 8.02404 21.5567 6.96182C20.4546 5.89959 19.0823 5.13516 17.5772 4.74508C17.3784 4.69388 17.192 4.60543 17.0287 4.48479C16.8654 4.36415 16.7283 4.21369 16.6253 4.04199C16.5223 3.87029 16.4554 3.68072 16.4284 3.4841C16.4014 3.28748 16.4149 3.08766 16.4681 2.89606ZM27.9197 20.3499C27.6767 22.172 26.7538 23.8465 25.3235 25.0605C23.8931 26.2746 22.0531 26.9453 20.1472 26.9473C9.49109 26.9473 0.821716 18.5913 0.821716 8.32035C0.823753 6.48331 1.51957 4.70981 2.77919 3.33115C4.03881 1.95249 5.77608 1.06297 7.66645 0.828751C8.22786 0.763431 8.79612 0.874927 9.28635 1.14658C9.77658 1.41824 10.1625 1.83548 10.3864 2.33597L13.0098 8.23591C13.18 8.61737 13.2493 9.03354 13.2118 9.44719C13.1742 9.86083 13.0308 10.259 12.7944 10.6062L10.7879 13.5613C11.6815 15.182 13.0608 16.5057 14.7462 17.3598L17.7624 15.4213C18.1235 15.1884 18.5394 15.0463 18.9721 15.0079C19.4048 14.9696 19.8406 15.0362 20.2398 15.2018L26.3559 17.7283C26.8753 17.9439 27.3084 18.3158 27.5903 18.7884C27.8722 19.2609 27.9878 19.8088 27.9197 20.3499ZM24.7442 20.3488L19.2655 18.0857L16.2319 20.0354C15.8558 20.2774 15.421 20.4211 14.9699 20.4523C14.5189 20.4836 14.0672 20.4013 13.6591 20.2136C11.1239 19.0295 9.07291 17.0615 7.83286 14.6234C7.6373 14.2324 7.54992 13.7993 7.57921 13.3662C7.6085 12.933 7.75347 12.5145 8.00003 12.1513L10.019 9.17774L7.66759 3.88952C6.61701 4.10861 5.67585 4.66765 5.00056 5.47371C4.32526 6.27977 3.9565 7.28431 3.95557 8.32035C3.96042 12.458 5.66787 16.4248 8.70334 19.3505C11.7388 22.2763 15.8544 23.922 20.1472 23.9267C21.2221 23.9257 22.2642 23.5703 23.1005 22.9194C23.9368 22.2685 24.5168 21.3614 24.7442 20.3488ZM16.181 9.51218C16.8219 9.70691 17.4047 10.0477 17.8798 10.5057C18.355 10.9637 18.7086 11.5254 18.9106 12.1431C18.9723 12.3325 19.0721 12.5083 19.2042 12.6604C19.3364 12.8126 19.4984 12.9381 19.6809 13.0299C19.8635 13.1217 20.063 13.1779 20.2681 13.1954C20.4732 13.2128 20.6798 13.1911 20.8762 13.1315C21.0726 13.0719 21.2549 12.9756 21.4126 12.8481C21.5704 12.7205 21.7005 12.5643 21.7956 12.3883C21.8907 12.2122 21.9488 12.0199 21.9667 11.8222C21.9846 11.6245 21.9619 11.4253 21.8999 11.2361C21.5462 10.1548 20.9273 9.17173 20.0956 8.37008C19.2639 7.56843 18.2439 6.97187 17.1221 6.63098C16.9258 6.57122 16.7191 6.54934 16.514 6.56659C16.3089 6.58384 16.1093 6.63989 15.9267 6.73152C15.7441 6.82315 15.582 6.94858 15.4497 7.10062C15.3174 7.25267 15.2174 7.42836 15.1556 7.61765C15.0938 7.80694 15.0713 8.00612 15.0893 8.2038C15.1074 8.40148 15.1657 8.5938 15.261 8.76974C15.3562 8.94569 15.4865 9.10182 15.6443 9.22921C15.8022 9.3566 15.9846 9.45276 16.181 9.51218Z" fill="#7773AC"/>
</svg>
