<svg width="1440" height="1024" viewBox="0 0 1440 1024" fill="none" xmlns="http://www.w3.org/2000/svg">
<path d="M0 0H1440V1024C1440 1024 1128.37 1024 723.989 1024C319.612 1024 0 1024 0 1024V0Z" fill="#171616"/>
<circle cx="530.5" cy="688.5" r="106.5" transform="rotate(-90 530.5 688.5)" fill="url(#paint0_linear_531_12)"/>
<ellipse cx="971" cy="314.5" rx="64.5" ry="64" transform="rotate(-90 971 314.5)" fill="url(#paint1_linear_531_12)"/>
<circle cx="573.5" cy="208.5" r="129.5" transform="rotate(-90 573.5 208.5)" fill="url(#paint2_linear_531_12)"/>
<circle cx="842.5" cy="793.5" r="129.5" transform="rotate(-90 842.5 793.5)" fill="url(#paint3_linear_531_12)"/>
<ellipse cx="185" cy="196.5" rx="64.5" ry="64" transform="rotate(-90 185 196.5)" fill="url(#paint4_linear_531_12)"/>
<ellipse cx="1311" cy="614.5" rx="64.5" ry="64" transform="rotate(-90 1311 614.5)" fill="url(#paint5_linear_531_12)"/>
<circle cx="106.5" cy="724.5" r="142.5" transform="rotate(-90 106.5 724.5)" fill="url(#paint6_linear_531_12)"/>
<circle cx="995" cy="80" r="71" transform="rotate(-90 995 80)" fill="url(#paint7_linear_531_12)"/>
<circle cx="1334" cy="268" r="178" transform="rotate(-90 1334 268)" fill="url(#paint8_linear_531_12)"/>
<defs>
<linearGradient id="paint0_linear_531_12" x1="671.435" y1="597.62" x2="337.38" y2="802.455" gradientUnits="userSpaceOnUse">
<stop offset="0.23773" stop-color="#FF3D00"/>
<stop offset="1" stop-color="#FA00FF" stop-opacity="0"/>
</linearGradient>
<linearGradient id="paint1_linear_531_12" x1="922.625" y1="218.5" x2="1060.12" y2="435.687" gradientUnits="userSpaceOnUse">
<stop stop-color="#FF0202"/>
<stop offset="1" stop-color="#E91515" stop-opacity="0"/>
</linearGradient>
<linearGradient id="paint2_linear_531_12" x1="744.872" y1="97.9933" x2="338.673" y2="347.065" gradientUnits="userSpaceOnUse">
<stop offset="0.23773" stop-color="#FF3D00"/>
<stop offset="1" stop-color="#FA00FF" stop-opacity="0"/>
</linearGradient>
<linearGradient id="paint3_linear_531_12" x1="1013.87" y1="682.993" x2="607.673" y2="932.065" gradientUnits="userSpaceOnUse">
<stop offset="0.23773" stop-color="#FF3D00"/>
<stop offset="1" stop-color="#FA00FF" stop-opacity="0"/>
</linearGradient>
<linearGradient id="paint4_linear_531_12" x1="136.625" y1="100.5" x2="274.116" y2="317.687" gradientUnits="userSpaceOnUse">
<stop stop-color="#FF0202"/>
<stop offset="1" stop-color="#E91515" stop-opacity="0"/>
</linearGradient>
<linearGradient id="paint5_linear_531_12" x1="1262.63" y1="518.5" x2="1400.12" y2="735.687" gradientUnits="userSpaceOnUse">
<stop stop-color="#FF0202"/>
<stop offset="1" stop-color="#E91515" stop-opacity="0"/>
</linearGradient>
<linearGradient id="paint6_linear_531_12" x1="-87.3139" y1="849.318" x2="321.463" y2="616.672" gradientUnits="userSpaceOnUse">
<stop offset="0.313218" stop-color="#DA1FB1"/>
<stop offset="1" stop-color="#C1119B" stop-opacity="0"/>
</linearGradient>
<linearGradient id="paint7_linear_531_12" x1="898.433" y1="142.19" x2="1102.1" y2="26.2749" gradientUnits="userSpaceOnUse">
<stop offset="0.313218" stop-color="#DA1FB1"/>
<stop offset="1" stop-color="#C1119B" stop-opacity="0"/>
</linearGradient>
<linearGradient id="paint8_linear_531_12" x1="1091.9" y1="423.912" x2="1602.52" y2="133.309" gradientUnits="userSpaceOnUse">
<stop offset="0.313218" stop-color="#DA1FB1"/>
<stop offset="1" stop-color="#C1119B" stop-opacity="0"/>
</linearGradient>
</defs>
</svg>
