<svg width="676" height="538" viewBox="0 0 676 538" fill="none" xmlns="http://www.w3.org/2000/svg">
<path d="M571.951 94.4306C559.972 53.6279 521.07 26.7772 478.672 30.0485L165.142 54.2391C115.989 58.0315 79.0355 100.662 82.2583 149.856L96.6054 368.849C100.031 421.142 147.235 459.461 199.115 452.064L554.802 401.355C609.096 393.615 643.903 339.528 628.455 286.905L571.951 94.4306Z" fill="#B3C9D2"/>
<path d="M58.7974 142.12C62.2528 95.5853 100.702 59.4094 147.361 58.7926L533.806 53.6839C586.709 52.9846 628.799 97.8492 624.729 150.6L605.257 402.974C601.513 451.494 559.879 488.25 511.269 485.949L127.284 467.775C76.6901 465.38 38.0359 421.723 41.7866 371.211L58.7974 142.12Z" fill="url(#paint0_linear_529_11)"/>
<defs>
<linearGradient id="paint0_linear_529_11" x1="157.557" y1="14.2624" x2="714.996" y2="293.26" gradientUnits="userSpaceOnUse">
<stop stop-color="#9F6AF9" stop-opacity="0.41"/>
<stop offset="0.225456" stop-color="#C589DB"/>
<stop offset="0.509824" stop-color="#EBA9BD"/>
<stop offset="1" stop-color="#EFF17D"/>
</linearGradient>
</defs>
</svg>
