<svg width="872" height="815" viewBox="0 0 872 815" fill="none" xmlns="http://www.w3.org/2000/svg">
<path d="M698.771 297.763C694.249 258.891 666.271 226.687 629.163 217.644L287.171 134.297C229.128 120.151 175.569 167.218 180.312 228.203L202.455 512.925C205.935 557.679 240.416 593.995 283.826 598.628L631.413 635.726C687.258 641.686 733.184 593.637 726.508 536.235L698.771 297.763Z" fill="#B3C9D2"/>
<path d="M118.823 269.501C115.772 219.168 154.665 176.15 205.05 174.129L650.762 156.249C707.534 153.971 752.187 204.223 743.249 260.334L706.319 492.182C699.715 533.646 665.317 565.034 623.424 567.826L229.2 594.096C179.393 597.415 136.4 559.565 133.381 509.739L118.823 269.501Z" fill="url(#paint0_linear_526_12)"/>
<defs>
<linearGradient id="paint0_linear_526_12" x1="182.591" y1="117.144" x2="741.451" y2="546.516" gradientUnits="userSpaceOnUse">
<stop stop-color="#9F6AF9" stop-opacity="0.41"/>
<stop offset="0.225456" stop-color="#C589DB"/>
<stop offset="0.509824" stop-color="#EBA9BD"/>
<stop offset="1" stop-color="#EFF17D"/>
</linearGradient>
</defs>
</svg>
