<svg width="864" height="931" viewBox="0 0 864 931" fill="none" xmlns="http://www.w3.org/2000/svg">
<path d="M652.05 350.527C658.445 294.295 611.967 246.186 555.547 250.637L197.597 278.881C153.383 282.37 118.302 317.549 114.936 361.772L98.5605 576.923C95.0326 623.274 127.384 664.685 173.211 672.479L513.283 730.314C564.209 738.975 611.959 703.084 617.796 651.757L652.05 350.527Z" fill="#B3C9D2"/>
<path d="M725.895 445.073C732.312 397.746 700.643 353.648 653.746 344.608L248.855 266.561C191.733 255.55 139.329 300.809 141.909 358.926L153.925 629.553C156.146 679.576 198.767 718.168 248.764 715.426L618.276 695.164C661.379 692.801 696.733 660.167 702.532 617.391L725.895 445.073Z" fill="url(#paint0_linear_526_11)"/>
<defs>
<linearGradient id="paint0_linear_526_11" x1="663.683" y1="303.709" x2="92.1519" y2="581.138" gradientUnits="userSpaceOnUse">
<stop stop-color="#9F6AF9" stop-opacity="0.41"/>
<stop offset="0.225456" stop-color="#C589DB"/>
<stop offset="0.509824" stop-color="#EBA9BD"/>
<stop offset="1" stop-color="#EFF17D"/>
</linearGradient>
</defs>
</svg>
