<svg width="692" height="568" viewBox="0 0 692 568" fill="none" xmlns="http://www.w3.org/2000/svg">
<path d="M575.585 134.589C566.745 92.9304 529.916 63.1699 487.33 63.272L145.738 64.0908C96.4744 64.2089 56.4605 103.912 55.958 153.173L53.4662 397.476C52.9313 449.924 97.1787 491.716 149.511 488.191L540.028 461.884C594.672 458.203 633.387 406.979 622.018 353.405L575.585 134.589Z" fill="#B3C9D2"/>
<path d="M51.1604 122.76C58.7501 76.9733 99.9128 44.4663 146.212 47.6961L534.999 74.8177C588.041 78.518 626.331 127.152 617.48 179.581L577.121 418.644C569.074 466.313 524.806 499.109 476.861 492.923L92.529 443.337C41.9738 436.815 6.92085 389.647 15.2566 339.359L51.1604 122.76Z" fill="url(#paint0_linear_522_25)"/>
<defs>
<linearGradient id="paint0_linear_522_25" x1="161.332" y1="5.37117" x2="686.907" y2="337.364" gradientUnits="userSpaceOnUse">
<stop stop-color="#9F6AF9" stop-opacity="0.41"/>
<stop offset="0.225456" stop-color="#C589DB"/>
<stop offset="0.509824" stop-color="#EBA9BD"/>
<stop offset="1" stop-color="#EFF17D"/>
</linearGradient>
</defs>
</svg>
