<svg width="125" height="32" viewBox="0 0 125 32" fill="none" xmlns="http://www.w3.org/2000/svg">
<path d="M50.9504 6.9213C50.9504 7.11727 50.9403 7.2862 50.92 7.42811C50.9065 7.57001 50.8828 7.68489 50.849 7.77273C50.822 7.85382 50.7848 7.91126 50.7375 7.94504C50.697 7.97883 50.6463 7.99572 50.5855 7.99572C50.4977 7.99572 50.3557 7.93491 50.1598 7.81328C49.9638 7.69164 49.7037 7.55988 49.3793 7.41797C49.055 7.27607 48.6664 7.1443 48.2137 7.02266C47.7677 6.90103 47.2474 6.84022 46.6527 6.84022C46.0175 6.84022 45.4431 6.95171 44.9296 7.17471C44.416 7.39094 43.9768 7.70178 43.6119 8.10722C43.247 8.50591 42.9666 8.98906 42.7706 9.55668C42.5746 10.1175 42.4767 10.7392 42.4767 11.4217C42.4767 12.1718 42.5746 12.834 42.7706 13.4084C42.9733 13.976 43.2538 14.4524 43.6119 14.8376C43.97 15.2227 44.3991 15.5133 44.8992 15.7093C45.406 15.9052 45.9635 16.0032 46.5716 16.0032C46.8689 16.0032 47.1629 15.9694 47.4535 15.9018C47.744 15.8343 48.0143 15.7329 48.2643 15.5978V12.5569H45.781C45.6594 12.5569 45.5648 12.4826 45.4972 12.334C45.4296 12.1785 45.3958 11.9184 45.3958 11.5535C45.3958 11.3643 45.4026 11.2055 45.4161 11.0771C45.4364 10.9487 45.4634 10.8473 45.4972 10.773C45.531 10.6919 45.5715 10.6345 45.6188 10.6007C45.6661 10.5601 45.7202 10.5399 45.781 10.5399H50.2105C50.3186 10.5399 50.4132 10.5601 50.4943 10.6007C50.5821 10.6345 50.6565 10.6885 50.7173 10.7629C50.7848 10.8372 50.8355 10.9284 50.8693 11.0365C50.9031 11.1379 50.92 11.2562 50.92 11.3913V16.6114C50.92 16.8141 50.8828 16.9932 50.8085 17.1486C50.7409 17.2972 50.5956 17.4155 50.3726 17.5033C50.1564 17.5912 49.8861 17.6824 49.5618 17.777C49.2374 17.8716 48.8995 17.9527 48.5482 18.0203C48.2035 18.0878 47.8521 18.1385 47.494 18.1723C47.1426 18.2061 46.7879 18.223 46.4297 18.223C45.3823 18.223 44.4431 18.0743 43.6119 17.777C42.7875 17.4729 42.0881 17.0371 41.5137 16.4695C40.9394 15.8951 40.5001 15.1991 40.1961 14.3814C39.892 13.557 39.7399 12.6245 39.7399 11.5839C39.7399 10.5095 39.9021 9.54654 40.2265 8.69511C40.5508 7.83693 41.0103 7.11051 41.605 6.51586C42.1996 5.91446 42.9159 5.45496 43.7538 5.13736C44.5985 4.81976 45.5377 4.66097 46.5716 4.66097C47.1392 4.66097 47.6562 4.70151 48.1224 4.7826C48.5887 4.85693 48.9941 4.95153 49.3388 5.06641C49.6901 5.17453 49.9807 5.29278 50.2105 5.42117C50.4402 5.54956 50.599 5.66106 50.6869 5.75566C50.7815 5.85026 50.849 5.98541 50.8896 6.1611C50.9301 6.33004 50.9504 6.58344 50.9504 6.9213ZM80.1625 17.6351C80.1625 17.7027 80.1388 17.7635 80.0915 17.8176C80.051 17.8716 79.98 17.9155 79.8787 17.9493C79.7773 17.9831 79.6422 18.0101 79.4732 18.0304C79.3043 18.0507 79.0881 18.0608 78.8245 18.0608C78.5677 18.0608 78.3515 18.0507 78.1758 18.0304C78.0069 18.0101 77.8717 17.9831 77.7704 17.9493C77.669 17.9155 77.5947 17.8716 77.5474 17.8176C77.5068 17.7635 77.4866 17.7027 77.4866 17.6351V5.24886C77.4866 5.18128 77.5068 5.12047 77.5474 5.06641C77.5947 5.01235 77.669 4.96843 77.7704 4.93464C77.8785 4.90085 78.017 4.87382 78.1859 4.85355C78.3549 4.83328 78.5677 4.82314 78.8245 4.82314C79.0881 4.82314 79.3043 4.83328 79.4732 4.85355C79.6422 4.87382 79.7773 4.90085 79.8787 4.93464C79.98 4.96843 80.051 5.01235 80.0915 5.06641C80.1388 5.12047 80.1625 5.18128 80.1625 5.24886V17.6351ZM124.305 14.0672C124.305 14.7565 124.177 15.3612 123.92 15.8816C123.663 16.4019 123.315 16.8377 122.876 17.1891C122.437 17.5337 121.923 17.7939 121.335 17.9696C120.747 18.1453 120.119 18.2331 119.45 18.2331C118.997 18.2331 118.575 18.196 118.183 18.1216C117.798 18.0473 117.456 17.9595 117.159 17.8581C116.862 17.75 116.612 17.6385 116.409 17.5236C116.213 17.4087 116.071 17.3074 115.983 17.2195C115.895 17.1317 115.831 17.0067 115.791 16.8445C115.757 16.6756 115.74 16.4357 115.74 16.1248C115.74 15.9154 115.747 15.7397 115.76 15.5978C115.774 15.4559 115.794 15.341 115.821 15.2531C115.855 15.1653 115.895 15.1045 115.943 15.0707C115.997 15.0301 116.058 15.0099 116.125 15.0099C116.22 15.0099 116.352 15.0673 116.52 15.1822C116.696 15.2903 116.919 15.4119 117.189 15.5471C117.46 15.6822 117.781 15.8072 118.152 15.9221C118.531 16.0302 118.967 16.0843 119.46 16.0843C119.784 16.0843 120.075 16.0471 120.332 15.9728C120.588 15.8917 120.805 15.7802 120.98 15.6383C121.163 15.4964 121.301 15.3207 121.396 15.1112C121.491 14.9017 121.538 14.6686 121.538 14.4118C121.538 14.1145 121.457 13.8611 121.295 13.6516C121.132 13.4354 120.92 13.2462 120.656 13.084C120.399 12.9151 120.105 12.7597 119.774 12.6178C119.443 12.4691 119.102 12.3137 118.75 12.1515C118.399 11.9893 118.058 11.8069 117.727 11.6042C117.396 11.3947 117.098 11.148 116.835 10.8642C116.578 10.5737 116.368 10.2324 116.206 9.84048C116.044 9.44856 115.963 8.97892 115.963 8.43157C115.963 7.80314 116.078 7.25242 116.308 6.7794C116.544 6.29963 116.858 5.90432 117.25 5.59348C117.649 5.27589 118.115 5.03938 118.649 4.88396C119.19 4.72854 119.761 4.65083 120.362 4.65083C120.673 4.65083 120.984 4.67448 121.295 4.72178C121.605 4.76908 121.896 4.83328 122.166 4.91437C122.437 4.99546 122.676 5.08668 122.886 5.18804C123.095 5.2894 123.234 5.37387 123.301 5.44144C123.369 5.50902 123.413 5.56645 123.433 5.61375C123.46 5.66106 123.481 5.72525 123.494 5.80634C123.514 5.88067 123.528 5.97865 123.535 6.10028C123.541 6.21516 123.545 6.36044 123.545 6.53613C123.545 6.7321 123.538 6.89765 123.524 7.0328C123.518 7.16795 123.501 7.27944 123.474 7.36729C123.454 7.45514 123.42 7.51933 123.372 7.55988C123.332 7.60042 123.274 7.62069 123.2 7.62069C123.126 7.62069 123.008 7.57339 122.845 7.47879C122.683 7.38418 122.484 7.28282 122.247 7.17471C122.011 7.05983 121.737 6.95847 121.426 6.87062C121.115 6.77602 120.774 6.72872 120.403 6.72872C120.112 6.72872 119.859 6.76588 119.642 6.84022C119.426 6.90779 119.244 7.00577 119.095 7.13416C118.953 7.25579 118.845 7.40446 118.771 7.58015C118.703 7.75584 118.669 7.94167 118.669 8.13763C118.669 8.4282 118.747 8.6816 118.902 8.89783C119.065 9.10731 119.277 9.29652 119.541 9.46545C119.811 9.62763 120.115 9.78305 120.453 9.93171C120.791 10.0736 121.136 10.2257 121.487 10.3878C121.839 10.55 122.183 10.7358 122.521 10.9453C122.859 11.148 123.16 11.3947 123.423 11.6852C123.687 11.9691 123.9 12.3069 124.062 12.6988C124.224 13.084 124.305 13.5401 124.305 14.0672Z" fill="#FF7F00"/>
<path d="M61.4412 16.956C61.4412 17.152 61.4311 17.3175 61.4108 17.4527C61.3973 17.581 61.3736 17.6858 61.3398 17.7669C61.3061 17.848 61.2621 17.9088 61.2081 17.9493C61.1608 17.9831 61.1067 18 61.0459 18H54.4575C54.2345 18 54.0453 17.9358 53.8898 17.8074C53.7412 17.6723 53.6669 17.456 53.6669 17.1587V5.72525C53.6669 5.42793 53.7412 5.21507 53.8898 5.08668C54.0453 4.95153 54.2345 4.88396 54.4575 4.88396H61.0054C61.0662 4.88396 61.1202 4.90085 61.1675 4.93464C61.2148 4.96843 61.2554 5.02924 61.2892 5.11709C61.3229 5.19818 61.3466 5.30629 61.3601 5.44144C61.3804 5.56983 61.3905 5.73539 61.3905 5.93811C61.3905 6.12731 61.3804 6.28949 61.3601 6.42464C61.3466 6.55303 61.3229 6.65777 61.2892 6.73886C61.2554 6.81994 61.2148 6.88076 61.1675 6.9213C61.1202 6.95509 61.0662 6.97198 61.0054 6.97198H56.3225V10.175H60.2857C60.3465 10.175 60.4006 10.1952 60.4479 10.2358C60.5019 10.2696 60.5458 10.327 60.5796 10.4081C60.6134 10.4824 60.6371 10.5872 60.6506 10.7223C60.6709 10.8507 60.681 11.0095 60.681 11.1987C60.681 11.3947 60.6709 11.5569 60.6506 11.6852C60.6371 11.8136 60.6134 11.9184 60.5796 11.9995C60.5458 12.0738 60.5019 12.1279 60.4479 12.1616C60.4006 12.1954 60.3465 12.2123 60.2857 12.2123H56.3225V15.912H61.0459C61.1067 15.912 61.1608 15.9322 61.2081 15.9728C61.2621 16.0066 61.3061 16.064 61.3398 16.1451C61.3736 16.2262 61.3973 16.3343 61.4108 16.4695C61.4311 16.5978 61.4412 16.76 61.4412 16.956ZM104.357 14.0672C104.357 14.7565 104.229 15.3612 103.972 15.8816C103.715 16.4019 103.367 16.8377 102.928 17.1891C102.489 17.5337 101.975 17.7939 101.387 17.9696C100.799 18.1453 100.171 18.2331 99.502 18.2331C99.0493 18.2331 98.627 18.196 98.235 18.1216C97.8499 18.0473 97.5086 17.9595 97.2113 17.8581C96.914 17.75 96.6639 17.6385 96.4612 17.5236C96.2653 17.4087 96.1234 17.3074 96.0355 17.2195C95.9477 17.1317 95.8835 17.0067 95.8429 16.8445C95.8091 16.6756 95.7922 16.4357 95.7922 16.1248C95.7922 15.9154 95.799 15.7397 95.8125 15.5978C95.826 15.4559 95.8463 15.341 95.8733 15.2531C95.9071 15.1653 95.9477 15.1045 95.995 15.0707C96.049 15.0301 96.1098 15.0099 96.1774 15.0099C96.272 15.0099 96.4038 15.0673 96.5727 15.1822C96.7484 15.2903 96.9714 15.4119 97.2417 15.5471C97.512 15.6822 97.833 15.8072 98.2046 15.9221C98.583 16.0302 99.0189 16.0843 99.5122 16.0843C99.8365 16.0843 100.127 16.0471 100.384 15.9728C100.641 15.8917 100.857 15.7802 101.033 15.6383C101.215 15.4964 101.354 15.3207 101.448 15.1112C101.543 14.9017 101.59 14.6686 101.59 14.4118C101.59 14.1145 101.509 13.8611 101.347 13.6516C101.185 13.4354 100.972 13.2462 100.708 13.084C100.451 12.9151 100.158 12.7597 99.8264 12.6178C99.4953 12.4691 99.154 12.3137 98.8027 12.1515C98.4513 11.9893 98.11 11.8069 97.7789 11.6042C97.4478 11.3947 97.1505 11.148 96.8869 10.8642C96.6302 10.5737 96.4207 10.2324 96.2585 9.84048C96.0963 9.44856 96.0152 8.97892 96.0152 8.43157C96.0152 7.80314 96.1301 7.25242 96.3599 6.7794C96.5964 6.29963 96.9106 5.90432 97.3025 5.59348C97.7012 5.27589 98.1675 5.03938 98.7013 4.88396C99.2419 4.72854 99.8129 4.65083 100.414 4.65083C100.725 4.65083 101.036 4.67448 101.347 4.72178C101.658 4.76908 101.948 4.83328 102.219 4.91437C102.489 4.99546 102.729 5.08668 102.938 5.18804C103.148 5.2894 103.286 5.37387 103.354 5.44144C103.421 5.50902 103.465 5.56645 103.486 5.61375C103.513 5.66106 103.533 5.72525 103.546 5.80634C103.567 5.88067 103.58 5.97865 103.587 6.10028C103.594 6.21516 103.597 6.36044 103.597 6.53613C103.597 6.7321 103.59 6.89765 103.577 7.0328C103.57 7.16795 103.553 7.27944 103.526 7.36729C103.506 7.45514 103.472 7.51933 103.425 7.55988C103.384 7.60042 103.327 7.62069 103.252 7.62069C103.178 7.62069 103.06 7.57339 102.898 7.47879C102.735 7.38418 102.536 7.28282 102.3 7.17471C102.063 7.05983 101.789 6.95847 101.479 6.87062C101.168 6.77602 100.826 6.72872 100.455 6.72872C100.164 6.72872 99.9109 6.76588 99.6946 6.84022C99.4784 6.90779 99.2959 7.00577 99.1473 7.13416C99.0054 7.25579 98.8973 7.40446 98.8229 7.58015C98.7554 7.75584 98.7216 7.94167 98.7216 8.13763C98.7216 8.4282 98.7993 8.6816 98.9547 8.89783C99.1169 9.10731 99.3297 9.29652 99.5933 9.46545C99.8636 9.62763 100.168 9.78305 100.506 9.93171C100.843 10.0736 101.188 10.2257 101.539 10.3878C101.891 10.55 102.235 10.7358 102.573 10.9453C102.911 11.148 103.212 11.3947 103.475 11.6852C103.739 11.9691 103.952 12.3069 104.114 12.6988C104.276 13.084 104.357 13.5401 104.357 14.0672Z" fill="#00BDFF"/>
<path d="M74.6181 17.0675C74.6181 17.2229 74.591 17.3614 74.537 17.4831C74.4829 17.6047 74.4086 17.7061 74.314 17.7871C74.2261 17.8682 74.118 17.929 73.9896 17.9696C73.868 18.0034 73.743 18.0203 73.6146 18.0203H72.4794C72.2428 18.0203 72.0367 17.9966 71.8611 17.9493C71.6921 17.902 71.5333 17.8176 71.3847 17.6959C71.2428 17.5675 71.1042 17.3986 70.9691 17.1891C70.8339 16.9729 70.6819 16.6958 70.513 16.358L67.2492 10.2257C67.0599 9.86076 66.8674 9.46883 66.6714 9.04987C66.4754 8.62416 66.2997 8.21196 66.1443 7.81328H66.1241C66.1511 8.29981 66.1714 8.78634 66.1849 9.27287C66.1984 9.75264 66.2051 10.2493 66.2051 10.7629V17.625C66.2051 17.6925 66.1849 17.7534 66.1443 17.8074C66.1105 17.8615 66.0463 17.9088 65.9517 17.9493C65.8639 17.9831 65.7423 18.0101 65.5868 18.0304C65.4314 18.0507 65.2321 18.0608 64.9888 18.0608C64.7523 18.0608 64.5563 18.0507 64.4009 18.0304C64.2455 18.0101 64.1239 17.9831 64.036 17.9493C63.9482 17.9088 63.8874 17.8615 63.8536 17.8074C63.8198 17.7534 63.8029 17.6925 63.8029 17.625V5.83675C63.8029 5.51915 63.8941 5.28264 64.0766 5.12722C64.2658 4.96505 64.4955 4.88396 64.7658 4.88396H66.195C66.4518 4.88396 66.668 4.90761 66.8437 4.95491C67.0194 4.99546 67.1748 5.06641 67.31 5.16777C67.4519 5.26913 67.5836 5.41103 67.7053 5.59348C67.8269 5.76917 67.9519 5.98879 68.0803 6.25233L70.6346 11.0467C70.7833 11.3372 70.9285 11.6244 71.0704 11.9082C71.2191 12.1853 71.361 12.4657 71.4962 12.7495C71.6313 13.0266 71.7631 13.3003 71.8915 13.5705C72.0199 13.8408 72.1449 14.1111 72.2665 14.3814H72.2766C72.2564 13.9084 72.2395 13.4151 72.226 12.9016C72.2192 12.388 72.2158 11.8981 72.2158 11.4318V5.27927C72.2158 5.21169 72.2361 5.15088 72.2766 5.09682C72.3172 5.04276 72.3847 4.99546 72.4794 4.95491C72.574 4.91437 72.699 4.88734 72.8544 4.87382C73.0098 4.85355 73.2091 4.84342 73.4524 4.84342C73.6822 4.84342 73.8747 4.85355 74.0302 4.87382C74.1856 4.88734 74.3038 4.91437 74.3849 4.95491C74.4728 4.99546 74.5336 5.04276 74.5674 5.09682C74.6012 5.15088 74.6181 5.21169 74.6181 5.27927V17.0675Z" fill="#7217E7"/>
<path d="M93.7245 13.1144C93.7245 13.9186 93.6062 14.6382 93.3697 15.2734C93.1332 15.9086 92.7852 16.4458 92.3257 16.885C91.8662 17.3243 91.2986 17.6588 90.6229 17.8885C89.9471 18.1183 89.17 18.2331 88.2916 18.2331C87.4672 18.2331 86.7273 18.1318 86.0718 17.929C85.4163 17.7196 84.8622 17.4054 84.4095 16.9864C83.9567 16.5674 83.6087 16.0471 83.3655 15.4254C83.129 14.797 83.0107 14.0638 83.0107 13.2259V5.24886C83.0107 5.18128 83.031 5.12047 83.0715 5.06641C83.1121 5.01235 83.183 4.96843 83.2844 4.93464C83.3925 4.90085 83.531 4.87382 83.7 4.85355C83.8689 4.83328 84.0851 4.82314 84.3487 4.82314C84.6054 4.82314 84.8183 4.83328 84.9872 4.85355C85.1562 4.87382 85.2913 4.90085 85.3927 4.93464C85.494 4.96843 85.565 5.01235 85.6055 5.06641C85.6528 5.12047 85.6765 5.18128 85.6765 5.24886V12.9928C85.6765 13.5131 85.7407 13.9659 85.8691 14.351C85.9975 14.7294 86.1799 15.0437 86.4164 15.2937C86.6597 15.5437 86.9469 15.7329 87.278 15.8613C87.6158 15.9829 87.9909 16.0437 88.4031 16.0437C88.822 16.0437 89.1971 15.9795 89.5282 15.8512C89.8593 15.7228 90.1397 15.5369 90.3695 15.2937C90.5992 15.0437 90.7749 14.7396 90.8965 14.3814C91.0249 14.0165 91.0891 13.6043 91.0891 13.1448V5.24886C91.0891 5.18128 91.1094 5.12047 91.1499 5.06641C91.1905 5.01235 91.2614 4.96843 91.3628 4.93464C91.4642 4.90085 91.5993 4.87382 91.7682 4.85355C91.9439 4.83328 92.1602 4.82314 92.417 4.82314C92.6737 4.82314 92.8832 4.83328 93.0454 4.85355C93.2143 4.87382 93.3495 4.90085 93.4508 4.93464C93.5522 4.96843 93.6231 5.01235 93.6637 5.06641C93.7042 5.12047 93.7245 5.18128 93.7245 5.24886V13.1144ZM114.169 16.956C114.169 17.152 114.159 17.3175 114.138 17.4527C114.125 17.581 114.101 17.6858 114.068 17.7669C114.034 17.848 113.99 17.9088 113.936 17.9493C113.888 17.9831 113.834 18 113.774 18H107.185C106.962 18 106.773 17.9358 106.618 17.8074C106.469 17.6723 106.395 17.456 106.395 17.1587V5.72525C106.395 5.42793 106.469 5.21507 106.618 5.08668C106.773 4.95153 106.962 4.88396 107.185 4.88396H113.733C113.794 4.88396 113.848 4.90085 113.895 4.93464C113.943 4.96843 113.983 5.02924 114.017 5.11709C114.051 5.19818 114.074 5.30629 114.088 5.44144C114.108 5.56983 114.118 5.73539 114.118 5.93811C114.118 6.12731 114.108 6.28949 114.088 6.42464C114.074 6.55303 114.051 6.65777 114.017 6.73886C113.983 6.81994 113.943 6.88076 113.895 6.9213C113.848 6.95509 113.794 6.97198 113.733 6.97198H109.05V10.175H113.013C113.074 10.175 113.128 10.1952 113.176 10.2358C113.23 10.2696 113.274 10.327 113.307 10.4081C113.341 10.4824 113.365 10.5872 113.378 10.7223C113.399 10.8507 113.409 11.0095 113.409 11.1987C113.409 11.3947 113.399 11.5569 113.378 11.6852C113.365 11.8136 113.341 11.9184 113.307 11.9995C113.274 12.0738 113.23 12.1279 113.176 12.1616C113.128 12.1954 113.074 12.2123 113.013 12.2123H109.05V15.912H113.774C113.834 15.912 113.888 15.9322 113.936 15.9728C113.99 16.0066 114.034 16.064 114.068 16.1451C114.101 16.2262 114.125 16.3343 114.138 16.4695C114.159 16.5978 114.169 16.76 114.169 16.956Z" fill="#FF2400"/>
<path d="M58.3017 25.7961C58.3017 26.1299 58.2394 26.427 58.1146 26.6875C57.9936 26.9479 57.823 27.1698 57.6029 27.3533C57.3865 27.533 57.1297 27.6687 56.8326 27.7604C56.5391 27.8521 56.2218 27.898 55.8807 27.898C55.6422 27.898 55.4203 27.8778 55.2149 27.8375C55.0131 27.7971 54.8315 27.7476 54.6701 27.6889C54.5124 27.6302 54.3785 27.5697 54.2685 27.5073C54.1621 27.445 54.0869 27.3918 54.0429 27.3478C54.0025 27.3037 53.9713 27.2487 53.9493 27.1827C53.931 27.113 53.9218 27.0213 53.9218 26.9076C53.9218 26.8269 53.9255 26.7608 53.9328 26.7095C53.9401 26.6545 53.9511 26.6104 53.9658 26.5774C53.9805 26.5444 53.9988 26.5224 54.0208 26.5114C54.0429 26.4967 54.0685 26.4894 54.0979 26.4894C54.1492 26.4894 54.2208 26.5206 54.3125 26.5829C54.4078 26.6453 54.5289 26.7131 54.6756 26.7865C54.8224 26.8599 54.9984 26.9296 55.2039 26.9956C55.413 27.058 55.6532 27.0891 55.9247 27.0891C56.1301 27.0891 56.3172 27.0616 56.4859 27.0066C56.6583 26.9516 56.8051 26.8746 56.9261 26.7755C57.0508 26.6728 57.1462 26.5481 57.2123 26.4013C57.2783 26.2546 57.3113 26.0877 57.3113 25.9006C57.3113 25.6989 57.2654 25.5265 57.1737 25.3834C57.082 25.2403 56.961 25.1156 56.8106 25.0092C56.6602 24.8992 56.4878 24.8001 56.2933 24.7121C56.1026 24.6204 55.9063 24.5287 55.7046 24.437C55.5028 24.3416 55.3066 24.2371 55.1158 24.1233C54.9251 24.0096 54.7545 23.8757 54.6041 23.7217C54.4537 23.5676 54.3308 23.3878 54.2354 23.1824C54.1437 22.9733 54.0979 22.7239 54.0979 22.4341C54.0979 22.137 54.1511 21.8728 54.2574 21.6417C54.3675 21.407 54.5179 21.2107 54.7086 21.053C54.9031 20.8953 55.1323 20.776 55.3964 20.6953C55.6642 20.611 55.9522 20.5688 56.2603 20.5688C56.4181 20.5688 56.5758 20.5834 56.7335 20.6128C56.8949 20.6385 57.0453 20.6752 57.1847 20.7228C57.3278 20.7669 57.4544 20.8182 57.5644 20.8769C57.6745 20.9319 57.746 20.9778 57.779 21.0145C57.8157 21.0475 57.8395 21.075 57.8505 21.097C57.8615 21.1153 57.8707 21.141 57.878 21.174C57.8854 21.2034 57.8909 21.2401 57.8946 21.2841C57.8982 21.3281 57.9001 21.385 57.9001 21.4547C57.9001 21.5207 57.8964 21.5794 57.889 21.6307C57.8854 21.6821 57.878 21.7261 57.867 21.7628C57.856 21.7958 57.8395 21.8215 57.8175 21.8398C57.7992 21.8545 57.7772 21.8618 57.7515 21.8618C57.7111 21.8618 57.6469 21.8362 57.5589 21.7848C57.4745 21.7335 57.37 21.6766 57.2453 21.6142C57.1205 21.5482 56.972 21.4895 56.7996 21.4382C56.6308 21.3831 56.4401 21.3556 56.2273 21.3556C56.0292 21.3556 55.8568 21.3831 55.7101 21.4382C55.5634 21.4895 55.4423 21.5592 55.3469 21.6472C55.2516 21.7353 55.18 21.8398 55.1323 21.9609C55.0846 22.0819 55.0608 22.2103 55.0608 22.3461C55.0608 22.5441 55.1067 22.7147 55.1984 22.8578C55.2901 23.0008 55.4111 23.1274 55.5615 23.2374C55.7156 23.3475 55.8898 23.4484 56.0843 23.5401C56.2787 23.6318 56.4768 23.7253 56.6785 23.8207C56.8803 23.9124 57.0784 24.0151 57.2728 24.1288C57.4672 24.2389 57.6396 24.3709 57.79 24.525C57.9441 24.6754 58.067 24.8552 58.1587 25.0643C58.254 25.2697 58.3017 25.5136 58.3017 25.7961ZM69.0352 26.7865C69.0352 26.8452 69.0334 26.8966 69.0297 26.9406C69.026 26.9846 69.0187 27.0231 69.0077 27.0561C69.0004 27.0891 68.9893 27.1185 68.9747 27.1442C68.96 27.1698 68.9343 27.201 68.8976 27.2377C68.861 27.2744 68.7839 27.3313 68.6665 27.4083C68.5492 27.4817 68.4024 27.555 68.2263 27.6284C68.0539 27.6981 67.854 27.7568 67.6266 27.8045C67.4028 27.8558 67.157 27.8815 66.8893 27.8815C66.4271 27.8815 66.0089 27.8045 65.6347 27.6504C65.2642 27.4963 64.9469 27.2689 64.6828 26.9681C64.4223 26.6673 64.2206 26.2968 64.0775 25.8566C63.9381 25.4127 63.8684 24.9028 63.8684 24.3269C63.8684 23.7363 63.9436 23.2099 64.094 22.7477C64.2481 22.2855 64.4627 21.8949 64.7378 21.5757C65.0129 21.2529 65.3412 21.0071 65.7227 20.8384C66.1079 20.6697 66.5334 20.5853 66.9993 20.5853C67.2047 20.5853 67.4046 20.6055 67.5991 20.6458C67.7935 20.6825 67.9732 20.7302 68.1383 20.7889C68.3034 20.8476 68.4501 20.9154 68.5785 20.9925C68.7069 21.0695 68.7949 21.1337 68.8426 21.185C68.894 21.2327 68.927 21.2694 68.9417 21.2951C68.9563 21.3208 68.9673 21.352 68.9747 21.3886C68.9857 21.4216 68.993 21.462 68.9967 21.5097C69.004 21.5574 69.0077 21.6142 69.0077 21.6803C69.0077 21.7536 69.004 21.816 68.9967 21.8673C68.9893 21.9187 68.9783 21.9627 68.9637 21.9994C68.949 22.0324 68.9307 22.0581 68.9086 22.0764C68.8903 22.0911 68.8665 22.0984 68.8371 22.0984C68.7858 22.0984 68.7142 22.0636 68.6225 21.9939C68.5308 21.9205 68.4116 21.8417 68.2649 21.7573C68.1218 21.6693 67.9457 21.5904 67.7366 21.5207C67.5312 21.4473 67.2836 21.4106 66.9938 21.4106C66.6783 21.4106 66.3904 21.4748 66.1299 21.6032C65.8731 21.728 65.653 21.9132 65.4696 22.159C65.2862 22.4047 65.1432 22.7055 65.0404 23.0614C64.9414 23.4135 64.8919 23.817 64.8919 24.2719C64.8919 24.7231 64.9396 25.1229 65.0349 25.4714C65.134 25.8163 65.2734 26.106 65.4531 26.3408C65.6365 26.5719 65.8603 26.748 66.1244 26.869C66.3885 26.9864 66.6875 27.0451 67.0213 27.0451C67.3038 27.0451 67.5495 27.0103 67.7586 26.9406C67.9714 26.8709 68.1511 26.7938 68.2979 26.7095C68.4483 26.6214 68.5712 26.5426 68.6665 26.4729C68.7619 26.4032 68.8371 26.3683 68.8921 26.3683C68.9178 26.3683 68.9398 26.3738 68.9582 26.3848C68.9765 26.3958 68.9912 26.4179 69.0022 26.4509C69.0132 26.4802 69.0205 26.5224 69.0242 26.5774C69.0315 26.6324 69.0352 26.7021 69.0352 26.7865ZM80.0383 27.6504C80.0383 27.6797 80.031 27.7054 80.0163 27.7274C80.0016 27.7494 79.9759 27.7678 79.9392 27.7825C79.9026 27.7935 79.853 27.8026 79.7907 27.81C79.732 27.821 79.6586 27.8265 79.5706 27.8265C79.4752 27.8265 79.3982 27.821 79.3395 27.81C79.2808 27.8026 79.2331 27.7935 79.1964 27.7825C79.1597 27.7678 79.1341 27.7494 79.1194 27.7274C79.1047 27.7054 79.0974 27.6797 79.0974 27.6504V24.492H75.8564V27.6504C75.8564 27.6797 75.8491 27.7054 75.8344 27.7274C75.8198 27.7494 75.7941 27.7678 75.7574 27.7825C75.7207 27.7935 75.6712 27.8026 75.6088 27.81C75.5501 27.821 75.4749 27.8265 75.3832 27.8265C75.2952 27.8265 75.22 27.821 75.1576 27.81C75.0953 27.8026 75.0458 27.7935 75.0091 27.7825C74.9724 27.7678 74.9467 27.7494 74.932 27.7274C74.9174 27.7054 74.91 27.6797 74.91 27.6504V20.8164C74.91 20.787 74.9174 20.7614 74.932 20.7393C74.9467 20.7173 74.9724 20.7008 75.0091 20.6898C75.0458 20.6752 75.0953 20.6641 75.1576 20.6568C75.22 20.6458 75.2952 20.6403 75.3832 20.6403C75.4749 20.6403 75.5501 20.6458 75.6088 20.6568C75.6712 20.6641 75.7207 20.6752 75.7574 20.6898C75.7941 20.7008 75.8198 20.7173 75.8344 20.7393C75.8491 20.7614 75.8564 20.787 75.8564 20.8164V23.6666H79.0974V20.8164C79.0974 20.787 79.1047 20.7614 79.1194 20.7393C79.1341 20.7173 79.1597 20.7008 79.1964 20.6898C79.2331 20.6752 79.2808 20.6641 79.3395 20.6568C79.3982 20.6458 79.4752 20.6403 79.5706 20.6403C79.6586 20.6403 79.732 20.6458 79.7907 20.6568C79.853 20.6641 79.9026 20.6752 79.9392 20.6898C79.9759 20.7008 80.0016 20.7173 80.0163 20.7393C80.031 20.7614 80.0383 20.787 80.0383 20.8164V27.6504ZM92.516 24.1509C92.516 24.7268 92.4482 25.2458 92.3124 25.708C92.1767 26.1702 91.9731 26.5646 91.7017 26.8911C91.4339 27.2139 91.0964 27.4633 90.6892 27.6394C90.282 27.8118 89.807 27.898 89.2641 27.898C88.7285 27.898 88.2645 27.8191 87.872 27.6614C87.4831 27.5 87.1603 27.2671 86.9036 26.9626C86.6504 26.6581 86.4615 26.2803 86.3368 25.8291C86.2121 25.3779 86.1497 24.8588 86.1497 24.2719C86.1497 23.7107 86.2176 23.2008 86.3533 22.7422C86.489 22.2837 86.6926 21.8949 86.9641 21.5757C87.2355 21.2529 87.5748 21.0053 87.982 20.8329C88.3892 20.6568 88.8643 20.5688 89.4072 20.5688C89.9317 20.5688 90.3884 20.6476 90.7773 20.8054C91.1661 20.9631 91.4889 21.1942 91.7457 21.4987C92.0061 21.7995 92.1987 22.1736 92.3234 22.6212C92.4518 23.065 92.516 23.5749 92.516 24.1509ZM91.5201 24.2169C91.5201 23.8134 91.4834 23.4392 91.41 23.0944C91.3403 22.7459 91.2211 22.4451 91.0524 22.192C90.8873 21.9352 90.6654 21.7353 90.3866 21.5922C90.1078 21.4492 89.763 21.3776 89.3521 21.3776C88.9413 21.3776 88.5965 21.4547 88.3177 21.6087C88.0389 21.7628 87.8115 21.9682 87.6354 22.225C87.463 22.4818 87.3382 22.7826 87.2612 23.1274C87.1878 23.4686 87.1512 23.828 87.1512 24.2059C87.1512 24.6241 87.186 25.0092 87.2557 25.3614C87.3254 25.7135 87.4428 26.018 87.6079 26.2748C87.7729 26.5279 87.993 26.726 88.2682 26.869C88.5469 27.0084 88.8954 27.0781 89.3136 27.0781C89.7281 27.0781 90.0766 27.0011 90.3591 26.847C90.6415 26.693 90.869 26.4857 91.0414 26.2253C91.2138 25.9611 91.3367 25.6567 91.41 25.3119C91.4834 24.967 91.5201 24.6021 91.5201 24.2169ZM104.598 24.1509C104.598 24.7268 104.53 25.2458 104.394 25.708C104.258 26.1702 104.055 26.5646 103.783 26.8911C103.515 27.2139 103.178 27.4633 102.771 27.6394C102.364 27.8118 101.889 27.898 101.346 27.898C100.81 27.898 100.346 27.8191 99.9535 27.6614C99.5647 27.5 99.2419 27.2671 98.9851 26.9626C98.732 26.6581 98.5431 26.2803 98.4184 25.8291C98.2936 25.3779 98.2313 24.8588 98.2313 24.2719C98.2313 23.7107 98.2991 23.2008 98.4349 22.7422C98.5706 22.2837 98.7742 21.8949 99.0456 21.5757C99.3171 21.2529 99.6564 21.0053 100.064 20.8329C100.471 20.6568 100.946 20.5688 101.489 20.5688C102.013 20.5688 102.47 20.6476 102.859 20.8054C103.248 20.9631 103.57 21.1942 103.827 21.4987C104.088 21.7995 104.28 22.1736 104.405 22.6212C104.533 23.065 104.598 23.5749 104.598 24.1509ZM103.602 24.2169C103.602 23.8134 103.565 23.4392 103.492 23.0944C103.422 22.7459 103.303 22.4451 103.134 22.192C102.969 21.9352 102.747 21.7353 102.468 21.5922C102.189 21.4492 101.845 21.3776 101.434 21.3776C101.023 21.3776 100.678 21.4547 100.399 21.6087C100.12 21.7628 99.893 21.9682 99.7169 22.225C99.5445 22.4818 99.4198 22.7826 99.3428 23.1274C99.2694 23.4686 99.2327 23.828 99.2327 24.2059C99.2327 24.6241 99.2676 25.0092 99.3373 25.3614C99.407 25.7135 99.5244 26.018 99.6894 26.2748C99.8545 26.5279 100.075 26.726 100.35 26.869C100.629 27.0084 100.977 27.0781 101.395 27.0781C101.81 27.0781 102.158 27.0011 102.441 26.847C102.723 26.693 102.951 26.4857 103.123 26.2253C103.295 25.9611 103.418 25.6567 103.492 25.3119C103.565 24.967 103.602 24.6021 103.602 24.2169ZM114.407 27.3808C114.407 27.4541 114.403 27.5165 114.396 27.5679C114.388 27.6155 114.375 27.6577 114.357 27.6944C114.342 27.7274 114.322 27.7531 114.297 27.7714C114.275 27.7861 114.247 27.7935 114.214 27.7935H111.067C110.982 27.7935 110.902 27.7659 110.825 27.7109C110.751 27.6522 110.715 27.5514 110.715 27.4083V20.8164C110.715 20.787 110.722 20.7614 110.737 20.7393C110.751 20.7173 110.777 20.7008 110.814 20.6898C110.85 20.6752 110.9 20.6641 110.962 20.6568C111.024 20.6458 111.1 20.6403 111.188 20.6403C111.279 20.6403 111.355 20.6458 111.413 20.6568C111.476 20.6641 111.525 20.6752 111.562 20.6898C111.599 20.7008 111.624 20.7173 111.639 20.7393C111.654 20.7614 111.661 20.787 111.661 20.8164V26.9736H114.214C114.247 26.9736 114.275 26.9828 114.297 27.0011C114.322 27.0158 114.342 27.0396 114.357 27.0726C114.375 27.102 114.388 27.1423 114.396 27.1937C114.403 27.245 114.407 27.3074 114.407 27.3808Z" fill="#082E9B"/>
<circle cx="14.5" cy="15.5" r="14.5" fill="#4B23BD"/>
<path d="M18.0336 15.1624C17.9661 15.1759 17.8717 15.1489 17.7368 15.1219C17.7368 15.1354 17.7503 15.1489 17.7503 15.1624C17.7908 15.3107 17.8178 15.4726 17.8178 15.6345C17.8178 15.8907 17.7638 16.12 17.6559 16.3359C17.3996 16.8484 16.8736 17.1991 16.2531 17.1991C15.4168 17.1991 14.7424 16.5517 14.6885 15.7154H14.014C14.014 15.7289 14.014 15.7289 14.014 15.7289C14.014 15.7424 14.014 15.7558 14.014 15.7828C14.014 15.8233 14.0006 15.8772 14.0006 15.9177C14.0006 15.9312 14.0006 15.9312 14.0006 15.9447C14.0006 15.9717 13.9871 15.9986 13.9871 16.0256C13.9871 16.0391 13.9736 16.0661 13.9736 16.0796C13.9601 16.1335 13.9331 16.1875 13.9196 16.2414V16.2549C13.9061 16.2819 13.8927 16.3089 13.8792 16.3359C13.7578 16.5786 13.5824 16.781 13.3666 16.9293C13.0699 17.1856 12.5843 17.1991 12.5843 17.1991C12.5573 17.1991 12.5168 17.1991 12.4899 17.1991C11.9099 17.1991 11.4108 16.8889 11.141 16.4303C11.141 16.4303 10.7768 15.9312 10.9792 15.1489C11.222 14.2317 12.0313 14.0698 12.5168 14.0563C12.0717 13.9889 11.7615 13.8675 11.4243 13.5707C11.1006 14.0968 10.8038 15.0949 10.8038 15.0949L10.7499 15.2028C10.642 15.2028 10.4531 15.2838 10.4531 15.2838C10.1968 15.3917 10.0215 15.6345 10.0215 15.9312C10.0215 16.3089 10.3317 16.6191 10.7094 16.6191C10.7633 16.6191 10.8173 16.6191 10.8713 16.6056C10.8713 16.6056 11.2085 17.9005 12.4224 18.7233H16.2261C16.2261 18.7233 17.7368 17.8196 17.8043 16.5112C17.8717 16.5382 17.9526 16.5517 18.0336 16.5517C18.4113 16.5517 18.7215 16.2414 18.7215 15.8638C18.7215 15.4726 18.4113 15.1624 18.0336 15.1624ZM14.3917 17.86C14.068 17.86 13.7982 17.5363 13.7982 17.1317C13.7982 17.0642 13.8117 16.9968 13.8252 16.9293H14.9582C14.9717 16.9968 14.9852 17.0642 14.9852 17.1317C14.9852 17.5363 14.7154 17.86 14.3917 17.86ZM15.3224 14.8521C15.1471 15.0679 15.0392 15.3377 15.0392 15.6345C15.0392 16.0256 15.228 16.3763 15.5113 16.5921C15.6192 16.6731 15.7406 16.7405 15.862 16.781C15.9834 16.8214 16.1182 16.8484 16.2531 16.8484C16.9275 16.8484 17.4671 16.2954 17.4671 15.6345C17.4671 15.3917 17.3996 15.1624 17.2647 14.96C16.9275 14.8252 16.5229 14.6363 16.1182 14.4205C15.808 14.461 15.5247 14.6093 15.3224 14.8521ZM15.7001 15.014C15.9429 15.014 16.1452 15.3512 16.1452 15.7693C16.1452 15.8907 16.1317 16.0121 16.0913 16.1065C16.0643 15.5535 15.3224 15.5131 15.2954 16.1065C15.2685 15.9986 15.2415 15.8907 15.2415 15.7693C15.255 15.3512 15.4573 15.014 15.7001 15.014ZM14.0275 15.4052H14.7154C14.7289 15.3512 14.7289 15.2972 14.7424 15.2433C14.8638 14.7442 15.228 14.3396 15.7001 14.1642C15.2145 13.8675 14.8503 13.5707 14.594 13.2605C14.3243 12.9368 14.4726 14.7442 14.4726 14.7442C14.4726 14.7442 13.5824 14.461 13.0564 13.8C13.0564 13.8 12.8136 13.9754 12.5303 14.0563C13.8522 14.0833 14.0275 15.4052 14.0275 15.4052ZM12.4629 16.8619C12.6113 16.8619 12.7326 16.8349 12.854 16.7945C12.9889 16.754 13.0968 16.6866 13.2047 16.6056C13.2452 16.5652 13.2857 16.5382 13.3261 16.4977C13.5419 16.2819 13.6768 15.9717 13.6768 15.6479C13.6768 15.3917 13.5959 15.1624 13.461 14.96C13.2992 14.7307 13.0699 14.5554 12.7866 14.4745C12.6787 14.4475 12.5708 14.4205 12.4494 14.4205C11.8694 14.4205 11.3703 14.8386 11.2624 15.3917C11.2489 15.4726 11.2354 15.5535 11.2354 15.6479C11.2354 15.8368 11.2759 16.0121 11.3568 16.174C11.5592 16.5786 11.9773 16.8619 12.4629 16.8619ZM13.0968 15.0545C13.3396 15.0545 13.542 15.3917 13.542 15.8098C13.542 15.9312 13.5285 16.0526 13.488 16.147C13.461 15.594 12.7192 15.5535 12.6922 16.147C12.6652 16.0391 12.6382 15.9312 12.6382 15.8098C12.6382 15.3917 12.8406 15.0545 13.0968 15.0545Z" fill="white"/>
<path d="M20.9335 17.7924C20.974 17.7249 21.0144 17.644 21.0414 17.5765C21.2572 17.0775 21.1628 16.6593 21.1089 16.511C21.0144 16.2412 20.92 16.4165 20.9065 16.4705C20.6503 17.01 20.34 17.064 20.1512 17.037C19.5172 16.9561 19.7196 15.2161 19.7465 15.0272C19.7735 14.8384 19.787 14.6361 19.8005 14.4338C19.8275 13.557 19.6386 12.7342 19.3014 11.9924C19.8544 11.6147 20.4075 11.2235 20.9605 10.8458C21.6349 10.3872 22.2958 9.91515 22.9703 9.45654C20.9065 7.9998 18.7619 6.52957 16.6577 5.07282C15.8619 4.5198 15.0796 3.96678 14.2972 3.42725C13.5284 3.96678 12.7596 4.50631 12.0042 5.05934C9.98096 6.52957 7.99817 7.9998 5.93445 9.44306C6.55491 9.90166 7.18887 10.3468 7.80933 10.8054C8.36236 11.21 8.91538 11.6012 9.4684 11.9924C9.1177 12.7342 8.92887 13.5705 8.95585 14.4607C8.95585 14.6631 8.98282 14.8654 9.00979 15.0542C9.00979 15.0542 9.00979 15.0542 9.00979 15.0677C9.03677 15.2565 9.2391 16.9965 8.60514 17.0775C8.41631 17.1045 8.10608 17.0505 7.8498 16.511C7.82282 16.457 7.7284 16.2817 7.64747 16.5514C7.59352 16.6998 7.51259 17.1179 7.7284 17.617C7.76886 17.6845 7.79585 17.7519 7.83631 17.8193C8.05213 18.224 8.3084 18.6017 8.59166 18.9524L7.58003 20.2742L9.5898 26.3305H19.2744L21.1628 20.2742L20.1512 18.9524C20.4614 18.5882 20.7177 18.197 20.9335 17.7924ZM12.0177 7.23096C12.6921 7.00166 13.407 6.86678 14.1624 6.85329C15.0391 6.82631 15.8754 6.94771 16.6577 7.20399V9.36213C15.9158 9.02492 15.0931 8.83608 14.2163 8.86306C13.461 8.89003 12.7461 9.06538 12.0986 9.36213H12.0177V7.23096ZM18.7349 25.6426H10.1293L8.32189 20.2742H20.4075L18.7349 25.6426ZM20.3265 19.991H8.48375L8.96933 19.357L9.07724 19.2221H19.7061L19.814 19.357L20.3265 19.991ZM18.7349 18.7231H17.4805H16.1721H15.7945L12.9214 18.7365H12.6382H11.3298H10.0484C8.8884 18.831 8.37585 17.5361 8.37585 17.5361C8.88841 17.7114 9.1177 17.644 9.4684 17.2663C9.53584 17.1854 9.58979 17.0235 9.61677 16.8212C9.71119 16.2007 9.65724 15.1756 9.61677 14.7305C9.61677 14.6765 9.60329 14.6091 9.60329 14.5552V14.5417C9.60329 14.5417 9.60329 14.5417 9.60329 14.5282V14.5147C9.60329 14.4877 9.60329 14.4472 9.60329 14.4203C9.57631 13.6784 9.72468 12.977 10.0079 12.3431C10.7363 10.711 12.3414 9.53748 14.2568 9.48352C16.2665 9.42957 18.02 10.6031 18.7889 12.3431C19.0317 12.8961 19.18 13.5031 19.1935 14.137C19.1935 14.2584 19.1935 14.3798 19.1935 14.5012C19.1935 14.5012 19.1935 14.5012 19.1935 14.5147C19.1935 14.5956 19.18 14.6765 19.18 14.7575C19.1531 15.2296 19.0991 16.2277 19.1935 16.8212C19.2205 17.0235 19.2744 17.1719 19.3419 17.2528C19.6926 17.6305 19.9219 17.6979 20.4344 17.5226C20.4075 17.5226 19.8949 18.8175 18.7349 18.7231Z" fill="white"/>
<path d="M22.9703 9.4834L22.3499 11.655H23.6043L22.9703 9.4834Z" fill="white"/>
<path d="M10.8394 24.6881C11.1169 24.6881 11.3419 24.4631 11.3419 24.1856C11.3419 23.9081 11.1169 23.6831 10.8394 23.6831C10.5619 23.6831 10.3369 23.9081 10.3369 24.1856C10.3369 24.4631 10.5619 24.6881 10.8394 24.6881Z" fill="#FF2400"/>
<path d="M12.6335 24.6881C12.911 24.6881 13.1359 24.4631 13.1359 24.1856C13.1359 23.9081 12.911 23.6831 12.6335 23.6831C12.3559 23.6831 12.131 23.9081 12.131 24.1856C12.131 24.4631 12.3559 24.6881 12.6335 24.6881Z" fill="#FF2400"/>
<path d="M14.4285 24.6881C14.706 24.6881 14.931 24.4631 14.931 24.1856C14.931 23.9081 14.706 23.6831 14.4285 23.6831C14.151 23.6831 13.926 23.9081 13.926 24.1856C13.926 24.4631 14.151 24.6881 14.4285 24.6881Z" fill="#FF2400"/>
<path d="M16.2226 24.6881C16.5001 24.6881 16.725 24.4631 16.725 24.1856C16.725 23.9081 16.5001 23.6831 16.2226 23.6831C15.9451 23.6831 15.7201 23.9081 15.7201 24.1856C15.7201 24.4631 15.9451 24.6881 16.2226 24.6881Z" fill="#FF2400"/>
<path d="M18.0171 24.6881C18.2946 24.6881 18.5196 24.4631 18.5196 24.1856C18.5196 23.9081 18.2946 23.6831 18.0171 23.6831C17.7396 23.6831 17.5146 23.9081 17.5146 24.1856C17.5146 24.4631 17.7396 24.6881 18.0171 24.6881Z" fill="#FF2400"/>
<path d="M12.5108 23.6114C12.8081 23.6114 13.0491 23.3704 13.0491 23.073C13.0491 22.7757 12.8081 22.5347 12.5108 22.5347C12.2134 22.5347 11.9724 22.7757 11.9724 23.073C11.9724 23.3704 12.2134 23.6114 12.5108 23.6114Z" fill="#FF7F00"/>
<path d="M10.5878 23.6114C10.8851 23.6114 11.1262 23.3704 11.1262 23.073C11.1262 22.7757 10.8851 22.5347 10.5878 22.5347C10.2905 22.5347 10.0494 22.7757 10.0494 23.073C10.0494 23.3704 10.2905 23.6114 10.5878 23.6114Z" fill="#FF7F00"/>
<path d="M14.4323 23.6114C14.7296 23.6114 14.9707 23.3704 14.9707 23.073C14.9707 22.7757 14.7296 22.5347 14.4323 22.5347C14.135 22.5347 13.8939 22.7757 13.8939 23.073C13.8939 23.3704 14.135 23.6114 14.4323 23.6114Z" fill="#FF7F00"/>
<path d="M16.3548 23.6114C16.6521 23.6114 16.8931 23.3704 16.8931 23.073C16.8931 22.7757 16.6521 22.5347 16.3548 22.5347C16.0574 22.5347 15.8164 22.7757 15.8164 23.073C15.8164 23.3704 16.0574 23.6114 16.3548 23.6114Z" fill="#FF7F00"/>
<path d="M18.2773 23.6114C18.5746 23.6114 18.8156 23.3704 18.8156 23.073C18.8156 22.7757 18.5746 22.5347 18.2773 22.5347C17.9799 22.5347 17.7389 22.7757 17.7389 23.073C17.7389 23.3704 17.9799 23.6114 18.2773 23.6114Z" fill="#FF7F00"/>
<path d="M10.3424 22.4202C10.7023 22.4202 10.9941 22.134 10.9941 21.7809C10.9941 21.4278 10.7023 21.1416 10.3424 21.1416C9.98245 21.1416 9.69067 21.4278 9.69067 21.7809C9.69067 22.134 9.98245 22.4202 10.3424 22.4202Z" fill="#00BDFF"/>
<path d="M12.3678 22.4491C12.7277 22.4491 13.0195 22.1628 13.0195 21.8097C13.0195 21.4566 12.7277 21.1704 12.3678 21.1704C12.0078 21.1704 11.7161 21.4566 11.7161 21.8097C11.7161 22.1628 12.0078 22.4491 12.3678 22.4491Z" fill="#00BDFF"/>
<path d="M14.4167 22.4491C14.7766 22.4491 15.0684 22.1628 15.0684 21.8097C15.0684 21.4566 14.7766 21.1704 14.4167 21.1704C14.0568 21.1704 13.765 21.4566 13.765 21.8097C13.765 22.1628 14.0568 22.4491 14.4167 22.4491Z" fill="#00BDFF"/>
<path d="M16.4652 22.4491C16.8251 22.4491 17.1169 22.1628 17.1169 21.8097C17.1169 21.4566 16.8251 21.1704 16.4652 21.1704C16.1053 21.1704 15.8135 21.4566 15.8135 21.8097C15.8135 22.1628 16.1053 22.4491 16.4652 22.4491Z" fill="#00BDFF"/>
<path d="M18.5142 22.4491C18.8742 22.4491 19.166 22.1628 19.166 21.8097C19.166 21.4566 18.8742 21.1704 18.5142 21.1704C18.1543 21.1704 17.8625 21.4566 17.8625 21.8097C17.8625 22.1628 18.1543 22.4491 18.5142 22.4491Z" fill="#00BDFF"/>
</svg>
