<svg width="301" height="75" viewBox="0 0 301 75" fill="none" xmlns="http://www.w3.org/2000/svg">
<path d="M125.347 15.7203C125.347 16.1851 125.323 16.5859 125.275 16.9225C125.243 17.2591 125.187 17.5316 125.107 17.74C125.043 17.9323 124.955 18.0686 124.843 18.1487C124.746 18.2289 124.626 18.2689 124.482 18.2689C124.274 18.2689 123.937 18.1247 123.472 17.8361C123.007 17.5476 122.39 17.2351 121.621 16.8984C120.851 16.5618 119.93 16.2493 118.856 15.9607C117.798 15.6722 116.564 15.528 115.153 15.528C113.646 15.528 112.284 15.7924 111.066 16.3214C109.847 16.8343 108.805 17.5717 107.94 18.5334C107.074 19.4791 106.409 20.6252 105.944 21.9716C105.479 23.3021 105.247 24.7767 105.247 26.3957C105.247 28.1749 105.479 29.7458 105.944 31.1082C106.425 32.4547 107.09 33.5847 107.94 34.4984C108.789 35.412 109.807 36.1013 110.993 36.5661C112.196 37.031 113.518 37.2634 114.961 37.2634C115.666 37.2634 116.363 37.1833 117.052 37.023C117.742 36.8627 118.383 36.6222 118.976 36.3017V29.0886H113.085C112.797 29.0886 112.572 28.9122 112.412 28.5596C112.252 28.1909 112.172 27.5738 112.172 26.7082C112.172 26.2594 112.188 25.8827 112.22 25.5782C112.268 25.2736 112.332 25.0332 112.412 24.8569C112.492 24.6645 112.588 24.5283 112.7 24.4481C112.813 24.352 112.941 24.3039 113.085 24.3039H123.592C123.849 24.3039 124.073 24.352 124.265 24.4481C124.474 24.5283 124.65 24.6565 124.794 24.8328C124.955 25.0092 125.075 25.2256 125.155 25.482C125.235 25.7225 125.275 26.003 125.275 26.3235V38.706C125.275 39.1869 125.187 39.6117 125.011 39.9803C124.851 40.333 124.506 40.6135 123.977 40.8219C123.464 41.0302 122.823 41.2466 122.053 41.471C121.284 41.6954 120.483 41.8878 119.649 42.0481C118.832 42.2084 117.998 42.3286 117.149 42.4087C116.315 42.4889 115.474 42.529 114.624 42.529C112.139 42.529 109.911 42.1763 107.94 41.471C105.984 40.7497 104.325 39.7159 102.963 38.3694C101.6 37.0069 100.558 35.3559 99.8371 33.4164C99.1158 31.4609 98.7552 29.2489 98.7552 26.7804C98.7552 24.2317 99.1399 21.9476 99.9093 19.9279C100.679 17.8922 101.769 16.1691 103.179 14.7586C104.59 13.332 106.289 12.242 108.276 11.4886C110.28 10.7353 112.508 10.3586 114.961 10.3586C116.307 10.3586 117.533 10.4547 118.639 10.6471C119.745 10.8234 120.707 11.0478 121.525 11.3203C122.358 11.5768 123.047 11.8573 123.592 12.1618C124.137 12.4664 124.514 12.7309 124.722 12.9553C124.947 13.1797 125.107 13.5003 125.203 13.917C125.299 14.3178 125.347 14.9188 125.347 15.7203ZM194.641 41.1344C194.641 41.2947 194.585 41.439 194.473 41.5672C194.377 41.6954 194.208 41.7996 193.968 41.8798C193.728 41.9599 193.407 42.024 193.006 42.0721C192.606 42.1202 192.093 42.1443 191.467 42.1443C190.858 42.1443 190.345 42.1202 189.929 42.0721C189.528 42.024 189.207 41.9599 188.967 41.8798C188.726 41.7996 188.55 41.6954 188.438 41.5672C188.342 41.439 188.294 41.2947 188.294 41.1344V11.7531C188.294 11.5928 188.342 11.4485 188.438 11.3203C188.55 11.1921 188.726 11.0879 188.967 11.0077C189.223 10.9276 189.552 10.8635 189.953 10.8154C190.353 10.7673 190.858 10.7433 191.467 10.7433C192.093 10.7433 192.606 10.7673 193.006 10.8154C193.407 10.8635 193.728 10.9276 193.968 11.0077C194.208 11.0879 194.377 11.1921 194.473 11.3203C194.585 11.4485 194.641 11.5928 194.641 11.7531V41.1344ZM299.351 32.6711C299.351 34.306 299.047 35.7406 298.438 36.9749C297.829 38.2091 297.003 39.243 295.961 40.0765C294.919 40.894 293.701 41.5111 292.306 41.9279C290.912 42.3446 289.421 42.553 287.834 42.553C286.76 42.553 285.759 42.4648 284.829 42.2885C283.915 42.1122 283.106 41.9038 282.401 41.6634C281.695 41.4069 281.102 41.1424 280.621 40.8699C280.156 40.5975 279.82 40.357 279.611 40.1486C279.403 39.9403 279.251 39.6437 279.155 39.259C279.074 38.8583 279.034 38.2893 279.034 37.5519C279.034 37.055 279.05 36.6383 279.082 36.3017C279.115 35.965 279.163 35.6926 279.227 35.4842C279.307 35.2758 279.403 35.1315 279.515 35.0514C279.644 34.9552 279.788 34.9071 279.948 34.9071C280.172 34.9071 280.485 35.0434 280.886 35.3159C281.303 35.5723 281.831 35.8609 282.473 36.1814C283.114 36.502 283.875 36.7986 284.757 37.0711C285.654 37.3275 286.688 37.4558 287.858 37.4558C288.628 37.4558 289.317 37.3676 289.926 37.1913C290.535 36.9989 291.048 36.7344 291.465 36.3978C291.898 36.0612 292.226 35.6445 292.451 35.1476C292.675 34.6507 292.787 34.0977 292.787 33.4886C292.787 32.7833 292.595 32.1822 292.21 31.6853C291.826 31.1723 291.321 30.7235 290.696 30.3388C290.086 29.9381 289.389 29.5694 288.604 29.2328C287.818 28.8802 287.009 28.5115 286.175 28.1268C285.342 27.7421 284.532 27.3093 283.747 26.8285C282.962 26.3316 282.256 25.7465 281.631 25.0733C281.022 24.384 280.525 23.5746 280.14 22.6449C279.756 21.7152 279.563 20.6012 279.563 19.3028C279.563 17.8121 279.836 16.5057 280.381 15.3837C280.942 14.2456 281.687 13.3079 282.617 12.5706C283.563 11.8172 284.669 11.2562 285.935 10.8875C287.217 10.5189 288.572 10.3345 289.998 10.3345C290.736 10.3345 291.473 10.3906 292.21 10.5028C292.948 10.615 293.637 10.7673 294.278 10.9597C294.919 11.152 295.488 11.3684 295.985 11.6088C296.482 11.8493 296.811 12.0496 296.971 12.2099C297.131 12.3702 297.235 12.5065 297.284 12.6187C297.348 12.7309 297.396 12.8832 297.428 13.0755C297.476 13.2518 297.508 13.4842 297.524 13.7728C297.54 14.0453 297.548 14.3899 297.548 14.8066C297.548 15.2715 297.532 15.6642 297.5 15.9848C297.484 16.3054 297.444 16.5698 297.38 16.7782C297.332 16.9866 297.251 17.1389 297.139 17.2351C297.043 17.3312 296.907 17.3793 296.731 17.3793C296.554 17.3793 296.274 17.2671 295.889 17.0427C295.504 16.8183 295.031 16.5779 294.47 16.3214C293.909 16.0489 293.26 15.8085 292.523 15.6001C291.786 15.3757 290.976 15.2635 290.094 15.2635C289.405 15.2635 288.804 15.3516 288.291 15.528C287.778 15.6882 287.345 15.9207 286.993 16.2252C286.656 16.5137 286.4 16.8664 286.223 17.2831C286.063 17.6999 285.983 18.1407 285.983 18.6055C285.983 19.2948 286.167 19.8959 286.536 20.4088C286.921 20.9057 287.426 21.3545 288.051 21.7553C288.692 22.14 289.413 22.5086 290.215 22.8613C291.016 23.1979 291.834 23.5585 292.667 23.9432C293.501 24.3279 294.318 24.7687 295.12 25.2656C295.921 25.7465 296.634 26.3316 297.259 27.0208C297.885 27.694 298.39 28.4955 298.774 29.4252C299.159 30.3388 299.351 31.4208 299.351 32.6711Z" fill="#FF7F00"/>
<path d="M150.233 39.5235C150.233 39.9883 150.209 40.3811 150.16 40.7016C150.128 41.0062 150.072 41.2546 149.992 41.447C149.912 41.6393 149.808 41.7836 149.68 41.8798C149.567 41.9599 149.439 42 149.295 42H133.667C133.138 42 132.689 41.8477 132.32 41.5432C131.967 41.2226 131.791 40.7097 131.791 40.0044V12.8832C131.791 12.1779 131.967 11.673 132.32 11.3684C132.689 11.0478 133.138 10.8875 133.667 10.8875H149.199C149.343 10.8875 149.471 10.9276 149.583 11.0077C149.696 11.0879 149.792 11.2322 149.872 11.4405C149.952 11.6329 150.008 11.8893 150.04 12.2099C150.088 12.5145 150.112 12.9072 150.112 13.3881C150.112 13.8369 150.088 14.2216 150.04 14.5422C150.008 14.8467 149.952 15.0952 149.872 15.2875C149.792 15.4799 149.696 15.6241 149.583 15.7203C149.471 15.8004 149.343 15.8405 149.199 15.8405H138.091V23.4383H147.492C147.636 23.4383 147.764 23.4864 147.876 23.5826C148.005 23.6627 148.109 23.799 148.189 23.9913C148.269 24.1676 148.325 24.4161 148.357 24.7367C148.405 25.0412 148.429 25.4179 148.429 25.8667C148.429 26.3316 148.405 26.7163 148.357 27.0208C148.325 27.3254 148.269 27.5738 148.189 27.7662C148.109 27.9425 148.005 28.0707 147.876 28.1509C147.764 28.231 147.636 28.2711 147.492 28.2711H138.091V37.047H149.295C149.439 37.047 149.567 37.0951 149.68 37.1913C149.808 37.2714 149.912 37.4077 149.992 37.6C150.072 37.7924 150.128 38.0488 150.16 38.3694C150.209 38.674 150.233 39.0587 150.233 39.5235ZM252.033 32.6711C252.033 34.306 251.729 35.7406 251.12 36.9749C250.511 38.2091 249.685 39.243 248.643 40.0765C247.601 40.894 246.383 41.5111 244.989 41.9279C243.594 42.3446 242.103 42.553 240.516 42.553C239.443 42.553 238.441 42.4648 237.511 42.2885C236.597 42.1122 235.788 41.9038 235.083 41.6634C234.377 41.4069 233.784 41.1424 233.303 40.8699C232.839 40.5975 232.502 40.357 232.294 40.1486C232.085 39.9403 231.933 39.6437 231.837 39.259C231.757 38.8583 231.717 38.2893 231.717 37.5519C231.717 37.055 231.733 36.6383 231.765 36.3017C231.797 35.965 231.845 35.6926 231.909 35.4842C231.989 35.2758 232.085 35.1315 232.197 35.0514C232.326 34.9552 232.47 34.9071 232.63 34.9071C232.855 34.9071 233.167 35.0434 233.568 35.3159C233.985 35.5723 234.514 35.8609 235.155 36.1814C235.796 36.502 236.557 36.7986 237.439 37.0711C238.337 37.3275 239.37 37.4558 240.541 37.4558C241.31 37.4558 241.999 37.3676 242.608 37.1913C243.217 36.9989 243.73 36.7344 244.147 36.3978C244.58 36.0612 244.908 35.6445 245.133 35.1476C245.357 34.6507 245.469 34.0977 245.469 33.4886C245.469 32.7833 245.277 32.1822 244.892 31.6853C244.508 31.1723 244.003 30.7235 243.378 30.3388C242.769 29.9381 242.071 29.5694 241.286 29.2328C240.5 28.8802 239.691 28.5115 238.857 28.1268C238.024 27.7421 237.214 27.3093 236.429 26.8285C235.644 26.3316 234.938 25.7465 234.313 25.0733C233.704 24.384 233.207 23.5746 232.823 22.6449C232.438 21.7152 232.245 20.6012 232.245 19.3028C232.245 17.8121 232.518 16.5057 233.063 15.3837C233.624 14.2456 234.369 13.3079 235.299 12.5706C236.245 11.8172 237.351 11.2562 238.617 10.8875C239.899 10.5189 241.254 10.3345 242.68 10.3345C243.418 10.3345 244.155 10.3906 244.892 10.5028C245.63 10.615 246.319 10.7673 246.96 10.9597C247.601 11.152 248.17 11.3684 248.667 11.6088C249.164 11.8493 249.493 12.0496 249.653 12.2099C249.813 12.3702 249.918 12.5065 249.966 12.6187C250.03 12.7309 250.078 12.8832 250.11 13.0755C250.158 13.2518 250.19 13.4842 250.206 13.7728C250.222 14.0453 250.23 14.3899 250.23 14.8066C250.23 15.2715 250.214 15.6642 250.182 15.9848C250.166 16.3054 250.126 16.5698 250.062 16.7782C250.014 16.9866 249.934 17.1389 249.821 17.2351C249.725 17.3312 249.589 17.3793 249.413 17.3793C249.236 17.3793 248.956 17.2671 248.571 17.0427C248.186 16.8183 247.714 16.5779 247.153 16.3214C246.592 16.0489 245.942 15.8085 245.205 15.6001C244.468 15.3757 243.658 15.2635 242.777 15.2635C242.087 15.2635 241.486 15.3516 240.973 15.528C240.46 15.6882 240.028 15.9207 239.675 16.2252C239.338 16.5137 239.082 16.8664 238.906 17.2831C238.745 17.6999 238.665 18.1407 238.665 18.6055C238.665 19.2948 238.849 19.8959 239.218 20.4088C239.603 20.9057 240.108 21.3545 240.733 21.7553C241.374 22.14 242.095 22.5086 242.897 22.8613C243.698 23.1979 244.516 23.5585 245.349 23.9432C246.183 24.3279 247 24.7687 247.802 25.2656C248.603 25.7465 249.316 26.3316 249.942 27.0208C250.567 27.694 251.072 28.4955 251.456 29.4252C251.841 30.3388 252.033 31.4208 252.033 32.6711Z" fill="#00BDFF"/>
<path d="M181.489 39.788C181.489 40.1567 181.425 40.4853 181.297 40.7738C181.169 41.0623 180.992 41.3027 180.768 41.4951C180.56 41.6874 180.303 41.8317 179.999 41.9279C179.71 42.008 179.414 42.0481 179.109 42.0481H176.416C175.855 42.0481 175.366 41.992 174.949 41.8798C174.549 41.7676 174.172 41.5672 173.819 41.2787C173.483 40.9741 173.154 40.5734 172.834 40.0765C172.513 39.5636 172.152 38.9064 171.752 38.1049L164.01 23.5585C163.561 22.693 163.104 21.7633 162.639 20.7695C162.174 19.7596 161.758 18.7819 161.389 17.8361H161.341C161.405 18.9902 161.453 20.1443 161.485 21.2984C161.517 22.4365 161.533 23.6146 161.533 24.8328V41.1104C161.533 41.2707 161.485 41.4149 161.389 41.5432C161.309 41.6714 161.156 41.7836 160.932 41.8798C160.724 41.9599 160.435 42.024 160.066 42.0721C159.698 42.1202 159.225 42.1443 158.648 42.1443C158.087 42.1443 157.622 42.1202 157.253 42.0721C156.885 42.024 156.596 41.9599 156.388 41.8798C156.179 41.7836 156.035 41.6714 155.955 41.5432C155.875 41.4149 155.835 41.2707 155.835 41.1104V13.1476C155.835 12.3943 156.051 11.8332 156.484 11.4646C156.933 11.0799 157.478 10.8875 158.119 10.8875H161.509C162.118 10.8875 162.631 10.9436 163.048 11.0558C163.465 11.152 163.833 11.3203 164.154 11.5608C164.49 11.8012 164.803 12.1378 165.092 12.5706C165.38 12.9873 165.677 13.5083 165.981 14.1334L172.04 25.5061C172.393 26.1953 172.737 26.8766 173.074 27.5498C173.427 28.207 173.763 28.8722 174.084 29.5454C174.404 30.2026 174.717 30.8518 175.022 31.4929C175.326 32.1341 175.623 32.7753 175.911 33.4164H175.935C175.887 32.2944 175.847 31.1243 175.815 29.906C175.799 28.6878 175.791 27.5257 175.791 26.4197V11.8252C175.791 11.6649 175.839 11.5207 175.935 11.3924C176.031 11.2642 176.192 11.152 176.416 11.0558C176.641 10.9597 176.937 10.8955 177.306 10.8635C177.674 10.8154 178.147 10.7914 178.724 10.7914C179.269 10.7914 179.726 10.8154 180.095 10.8635C180.463 10.8955 180.744 10.9597 180.936 11.0558C181.145 11.152 181.289 11.2642 181.369 11.3924C181.449 11.5207 181.489 11.6649 181.489 11.8252V39.788Z" fill="#7217E7"/>
<path d="M226.812 30.411C226.812 32.3184 226.531 34.0255 225.97 35.5323C225.409 37.039 224.584 38.3133 223.494 39.3552C222.404 40.3971 221.057 41.1905 219.454 41.7355C217.851 42.2805 216.008 42.553 213.924 42.553C211.969 42.553 210.213 42.3126 208.659 41.8317C207.104 41.3348 205.789 40.5894 204.716 39.5956C203.642 38.6018 202.816 37.3676 202.239 35.8929C201.678 34.4022 201.397 32.6631 201.397 30.6754V11.7531C201.397 11.5928 201.446 11.4485 201.542 11.3203C201.638 11.1921 201.806 11.0879 202.047 11.0077C202.303 10.9276 202.632 10.8635 203.032 10.8154C203.433 10.7673 203.946 10.7433 204.571 10.7433C205.18 10.7433 205.685 10.7673 206.086 10.8154C206.487 10.8635 206.807 10.9276 207.048 11.0077C207.288 11.0879 207.456 11.1921 207.553 11.3203C207.665 11.4485 207.721 11.5928 207.721 11.7531V30.1224C207.721 31.3567 207.873 32.4306 208.178 33.3443C208.482 34.2419 208.915 34.9873 209.476 35.5803C210.053 36.1734 210.734 36.6222 211.52 36.9268C212.321 37.2153 213.211 37.3596 214.189 37.3596C215.183 37.3596 216.072 37.2073 216.858 36.9027C217.643 36.5982 218.308 36.1574 218.853 35.5803C219.398 34.9873 219.815 34.266 220.103 33.4164C220.408 32.5508 220.56 31.5731 220.56 30.4831V11.7531C220.56 11.5928 220.608 11.4485 220.705 11.3203C220.801 11.1921 220.969 11.0879 221.209 11.0077C221.45 10.9276 221.77 10.8635 222.171 10.8154C222.588 10.7673 223.101 10.7433 223.71 10.7433C224.319 10.7433 224.816 10.7673 225.201 10.8154C225.601 10.8635 225.922 10.9276 226.162 11.0077C226.403 11.0879 226.571 11.1921 226.667 11.3203C226.764 11.4485 226.812 11.5928 226.812 11.7531V30.411ZM275.308 39.5235C275.308 39.9883 275.284 40.3811 275.236 40.7016C275.203 41.0062 275.147 41.2546 275.067 41.447C274.987 41.6393 274.883 41.7836 274.755 41.8798C274.642 41.9599 274.514 42 274.37 42H258.742C258.213 42 257.764 41.8477 257.395 41.5432C257.042 41.2226 256.866 40.7097 256.866 40.0044V12.8832C256.866 12.1779 257.042 11.673 257.395 11.3684C257.764 11.0478 258.213 10.8875 258.742 10.8875H274.274C274.418 10.8875 274.546 10.9276 274.658 11.0077C274.771 11.0879 274.867 11.2322 274.947 11.4405C275.027 11.6329 275.083 11.8893 275.115 12.2099C275.163 12.5145 275.187 12.9072 275.187 13.3881C275.187 13.8369 275.163 14.2216 275.115 14.5422C275.083 14.8467 275.027 15.0952 274.947 15.2875C274.867 15.4799 274.771 15.6241 274.658 15.7203C274.546 15.8004 274.418 15.8405 274.274 15.8405H263.166V23.4383H272.567C272.711 23.4383 272.839 23.4864 272.951 23.5826C273.08 23.6627 273.184 23.799 273.264 23.9913C273.344 24.1676 273.4 24.4161 273.432 24.7367C273.48 25.0412 273.504 25.4179 273.504 25.8667C273.504 26.3316 273.48 26.7163 273.432 27.0208C273.4 27.3254 273.344 27.5738 273.264 27.7662C273.184 27.9425 273.08 28.0707 272.951 28.1509C272.839 28.231 272.711 28.2711 272.567 28.2711H263.166V37.047H274.37C274.514 37.047 274.642 37.0951 274.755 37.1913C274.883 37.2714 274.987 37.4077 275.067 37.6C275.147 37.7924 275.203 38.0488 275.236 38.3694C275.284 38.674 275.308 39.0587 275.308 39.5235Z" fill="#FF2400"/>
<path d="M142.785 60.4691C142.785 61.2609 142.637 61.9657 142.341 62.5835C142.054 63.2013 141.65 63.7278 141.128 64.1629C140.614 64.5892 140.005 64.9112 139.3 65.1287C138.604 65.3463 137.852 65.455 137.042 65.455C136.477 65.455 135.95 65.4072 135.463 65.3114C134.984 65.2157 134.554 65.0983 134.171 64.959C133.797 64.8198 133.479 64.6762 133.218 64.5283C132.966 64.3804 132.787 64.2542 132.683 64.1498C132.587 64.0454 132.513 63.9149 132.461 63.7582C132.417 63.5929 132.396 63.3754 132.396 63.1056C132.396 62.9142 132.404 62.7576 132.422 62.6357C132.439 62.5052 132.465 62.4008 132.5 62.3225C132.535 62.2442 132.578 62.192 132.631 62.1659C132.683 62.131 132.744 62.1136 132.813 62.1136C132.935 62.1136 133.105 62.1876 133.322 62.3355C133.549 62.4835 133.836 62.6444 134.184 62.8185C134.532 62.9925 134.95 63.1578 135.437 63.3145C135.933 63.4624 136.503 63.5363 137.147 63.5363C137.634 63.5363 138.078 63.4711 138.478 63.3406C138.887 63.21 139.235 63.0273 139.522 62.7924C139.818 62.5487 140.044 62.2529 140.201 61.9048C140.358 61.5567 140.436 61.1608 140.436 60.7171C140.436 60.2385 140.327 59.8295 140.11 59.4901C139.892 59.1508 139.605 58.8549 139.248 58.6026C138.891 58.3415 138.482 58.1066 138.021 57.8978C137.569 57.6802 137.103 57.4627 136.625 57.2452C136.146 57.0189 135.68 56.7709 135.228 56.5012C134.776 56.2314 134.371 55.9138 134.014 55.5484C133.657 55.1829 133.366 54.7565 133.14 54.2692C132.922 53.7732 132.813 53.1815 132.813 52.4941C132.813 51.7893 132.94 51.1628 133.192 50.6146C133.453 50.0577 133.81 49.5922 134.262 49.218C134.723 48.8438 135.267 48.561 135.894 48.3696C136.529 48.1695 137.212 48.0694 137.943 48.0694C138.317 48.0694 138.691 48.1042 139.065 48.1738C139.448 48.2347 139.805 48.3218 140.136 48.4349C140.475 48.5393 140.775 48.6611 141.036 48.8003C141.297 48.9309 141.467 49.0396 141.545 49.1266C141.632 49.205 141.689 49.2702 141.715 49.3224C141.741 49.3659 141.763 49.4268 141.78 49.5052C141.798 49.5748 141.811 49.6618 141.819 49.7662C141.828 49.8706 141.832 50.0055 141.832 50.1708C141.832 50.3275 141.824 50.4667 141.806 50.5885C141.798 50.7103 141.78 50.8147 141.754 50.9018C141.728 50.9801 141.689 51.041 141.637 51.0845C141.593 51.1193 141.541 51.1367 141.48 51.1367C141.384 51.1367 141.232 51.0758 141.023 50.954C140.823 50.8321 140.575 50.6973 140.279 50.5493C139.983 50.3927 139.631 50.2535 139.222 50.1317C138.822 50.0011 138.369 49.9359 137.865 49.9359C137.395 49.9359 136.986 50.0011 136.638 50.1317C136.29 50.2535 136.002 50.4188 135.776 50.6277C135.55 50.8365 135.38 51.0845 135.267 51.3716C135.154 51.6588 135.097 51.9633 135.097 52.2853C135.097 52.7552 135.206 53.1598 135.424 53.4992C135.641 53.8385 135.928 54.1387 136.285 54.3998C136.651 54.6608 137.064 54.9001 137.525 55.1176C137.986 55.3352 138.456 55.5571 138.935 55.7833C139.413 56.0008 139.883 56.2445 140.345 56.5142C140.806 56.7753 141.215 57.0885 141.571 57.454C141.937 57.8107 142.228 58.2371 142.446 58.7331C142.672 59.2204 142.785 59.799 142.785 60.4691ZM168.246 62.8185C168.246 62.9577 168.242 63.0795 168.233 63.1839C168.224 63.2883 168.207 63.3797 168.181 63.458C168.163 63.5363 168.137 63.606 168.102 63.6669C168.068 63.7278 168.007 63.8017 167.92 63.8888C167.833 63.9758 167.65 64.1106 167.372 64.2934C167.093 64.4674 166.745 64.6414 166.327 64.8155C165.918 64.9808 165.444 65.12 164.905 65.2331C164.374 65.355 163.791 65.4159 163.156 65.4159C162.059 65.4159 161.067 65.2331 160.18 64.8677C159.301 64.5022 158.548 63.9627 157.922 63.2492C157.304 62.5357 156.825 61.6568 156.486 60.6126C156.155 59.5598 155.99 58.3502 155.99 56.9841C155.99 55.5832 156.168 54.3345 156.525 53.2381C156.891 52.1417 157.4 51.215 158.052 50.458C158.705 49.6922 159.484 49.1092 160.389 48.709C161.302 48.3087 162.312 48.1086 163.417 48.1086C163.904 48.1086 164.378 48.1564 164.839 48.2521C165.301 48.3392 165.727 48.4523 166.119 48.5915C166.51 48.7307 166.858 48.8917 167.163 49.0744C167.467 49.2572 167.676 49.4094 167.789 49.5313C167.911 49.6444 167.989 49.7314 168.024 49.7923C168.059 49.8532 168.085 49.9272 168.102 50.0142C168.129 50.0925 168.146 50.1882 168.155 50.3013C168.172 50.4145 168.181 50.5493 168.181 50.706C168.181 50.88 168.172 51.0279 168.155 51.1497C168.137 51.2716 168.111 51.376 168.076 51.463C168.042 51.5413 167.998 51.6022 167.946 51.6457C167.902 51.6805 167.846 51.6979 167.776 51.6979C167.654 51.6979 167.485 51.6153 167.267 51.4499C167.05 51.2759 166.767 51.0888 166.419 50.8887C166.079 50.6799 165.662 50.4928 165.166 50.3275C164.678 50.1534 164.091 50.0664 163.404 50.0664C162.655 50.0664 161.972 50.2187 161.354 50.5232C160.745 50.8191 160.223 51.2585 159.788 51.8415C159.353 52.4245 159.014 53.138 158.77 53.9821C158.535 54.8174 158.418 55.7746 158.418 56.8536C158.418 57.9239 158.531 58.8723 158.757 59.699C158.992 60.5169 159.323 61.2043 159.749 61.7612C160.184 62.3094 160.715 62.7271 161.341 63.0143C161.968 63.2927 162.677 63.4319 163.469 63.4319C164.139 63.4319 164.722 63.3493 165.218 63.1839C165.723 63.0186 166.149 62.8359 166.497 62.6357C166.854 62.4269 167.145 62.2398 167.372 62.0745C167.598 61.9092 167.776 61.8265 167.907 61.8265C167.968 61.8265 168.02 61.8395 168.063 61.8657C168.107 61.8918 168.142 61.944 168.168 62.0223C168.194 62.0919 168.211 62.192 168.22 62.3225C168.237 62.453 168.246 62.6183 168.246 62.8185ZM194.346 64.8677C194.346 64.9373 194.329 64.9982 194.294 65.0504C194.259 65.1026 194.198 65.1461 194.111 65.1809C194.024 65.207 193.907 65.2288 193.759 65.2462C193.62 65.2723 193.446 65.2853 193.237 65.2853C193.011 65.2853 192.828 65.2723 192.689 65.2462C192.55 65.2288 192.436 65.207 192.349 65.1809C192.262 65.1461 192.201 65.1026 192.167 65.0504C192.132 64.9982 192.114 64.9373 192.114 64.8677V57.3757H184.427V64.8677C184.427 64.9373 184.409 64.9982 184.374 65.0504C184.34 65.1026 184.279 65.1461 184.192 65.1809C184.105 65.207 183.987 65.2288 183.839 65.2462C183.7 65.2723 183.522 65.2853 183.304 65.2853C183.095 65.2853 182.917 65.2723 182.769 65.2462C182.621 65.2288 182.504 65.207 182.417 65.1809C182.33 65.1461 182.269 65.1026 182.234 65.0504C182.199 64.9982 182.182 64.9373 182.182 64.8677V48.6568C182.182 48.5872 182.199 48.5262 182.234 48.474C182.269 48.4218 182.33 48.3827 182.417 48.3566C182.504 48.3218 182.621 48.2956 182.769 48.2782C182.917 48.2521 183.095 48.2391 183.304 48.2391C183.522 48.2391 183.7 48.2521 183.839 48.2782C183.987 48.2956 184.105 48.3218 184.192 48.3566C184.279 48.3827 184.34 48.4218 184.374 48.474C184.409 48.5262 184.427 48.5872 184.427 48.6568V55.4178H192.114V48.6568C192.114 48.5872 192.132 48.5262 192.167 48.474C192.201 48.4218 192.262 48.3827 192.349 48.3566C192.436 48.3218 192.55 48.2956 192.689 48.2782C192.828 48.2521 193.011 48.2391 193.237 48.2391C193.446 48.2391 193.62 48.2521 193.759 48.2782C193.907 48.2956 194.024 48.3218 194.111 48.3566C194.198 48.3827 194.259 48.4218 194.294 48.474C194.329 48.5262 194.346 48.5872 194.346 48.6568V64.8677ZM223.945 56.5664C223.945 57.9326 223.784 59.1638 223.462 60.2602C223.14 61.3566 222.657 62.292 222.013 63.0665C221.378 63.8322 220.577 64.4239 219.611 64.8416C218.646 65.2505 217.519 65.455 216.231 65.455C214.96 65.455 213.86 65.2679 212.929 64.8938C212.006 64.5109 211.241 63.9584 210.631 63.2361C210.031 62.5139 209.583 61.6177 209.287 60.5474C208.991 59.4771 208.843 58.2458 208.843 56.8536C208.843 55.5223 209.004 54.3127 209.326 53.2251C209.648 52.1374 210.131 51.215 210.775 50.458C211.419 49.6922 212.224 49.1049 213.19 48.6959C214.156 48.2782 215.282 48.0694 216.57 48.0694C217.815 48.0694 218.898 48.2565 219.82 48.6307C220.743 49.0048 221.508 49.553 222.117 50.2752C222.735 50.9888 223.192 51.8763 223.488 52.9379C223.792 53.9908 223.945 55.2003 223.945 56.5664ZM221.582 56.7231C221.582 55.7659 221.495 54.8783 221.321 54.0604C221.156 53.2338 220.873 52.5202 220.473 51.9198C220.081 51.3107 219.555 50.8365 218.894 50.4971C218.232 50.1578 217.414 49.9881 216.44 49.9881C215.465 49.9881 214.647 50.1708 213.986 50.5363C213.325 50.9018 212.785 51.389 212.367 51.9981C211.958 52.6072 211.663 53.3208 211.48 54.1387C211.306 54.948 211.219 55.8007 211.219 56.697C211.219 57.6889 211.301 58.6026 211.467 59.4379C211.632 60.2733 211.911 60.9955 212.302 61.6046C212.694 62.205 213.216 62.6749 213.868 63.0143C214.53 63.3449 215.356 63.5102 216.348 63.5102C217.332 63.5102 218.158 63.3275 218.828 62.962C219.498 62.5966 220.038 62.1049 220.447 61.4871C220.856 60.8606 221.147 60.1384 221.321 59.3205C221.495 58.5025 221.582 57.6367 221.582 56.7231ZM252.603 56.5664C252.603 57.9326 252.442 59.1638 252.12 60.2602C251.798 61.3566 251.316 62.292 250.672 63.0665C250.036 63.8322 249.236 64.4239 248.27 64.8416C247.304 65.2505 246.177 65.455 244.889 65.455C243.619 65.455 242.518 65.2679 241.587 64.8938C240.665 64.5109 239.899 63.9584 239.29 63.2361C238.69 62.5139 238.242 61.6177 237.946 60.5474C237.65 59.4771 237.502 58.2458 237.502 56.8536C237.502 55.5223 237.663 54.3127 237.985 53.2251C238.307 52.1374 238.79 51.215 239.434 50.458C240.078 49.6922 240.882 49.1049 241.848 48.6959C242.814 48.2782 243.941 48.0694 245.229 48.0694C246.473 48.0694 247.556 48.2565 248.479 48.6307C249.401 49.0048 250.167 49.553 250.776 50.2752C251.394 50.9888 251.851 51.8763 252.147 52.9379C252.451 53.9908 252.603 55.2003 252.603 56.5664ZM250.241 56.7231C250.241 55.7659 250.154 54.8783 249.98 54.0604C249.815 53.2338 249.532 52.5202 249.131 51.9198C248.74 51.3107 248.213 50.8365 247.552 50.4971C246.891 50.1578 246.073 49.9881 245.098 49.9881C244.124 49.9881 243.306 50.1708 242.644 50.5363C241.983 50.9018 241.444 51.389 241.026 51.9981C240.617 52.6072 240.321 53.3208 240.138 54.1387C239.964 54.948 239.877 55.8007 239.877 56.697C239.877 57.6889 239.96 58.6026 240.125 59.4379C240.291 60.2733 240.569 60.9955 240.961 61.6046C241.352 62.205 241.874 62.6749 242.527 63.0143C243.188 63.3449 244.015 63.5102 245.007 63.5102C245.99 63.5102 246.817 63.3275 247.487 62.962C248.157 62.5966 248.696 62.1049 249.105 61.4871C249.514 60.8606 249.806 60.1384 249.98 59.3205C250.154 58.5025 250.241 57.6367 250.241 56.7231ZM275.871 64.2281C275.871 64.4021 275.863 64.5501 275.845 64.6719C275.828 64.785 275.797 64.8851 275.754 64.9721C275.719 65.0504 275.671 65.1113 275.61 65.1548C275.558 65.1896 275.493 65.207 275.415 65.207H267.949C267.749 65.207 267.557 65.1418 267.374 65.0112C267.2 64.872 267.113 64.6327 267.113 64.2934V48.6568C267.113 48.5872 267.131 48.5262 267.165 48.474C267.2 48.4218 267.261 48.3827 267.348 48.3566C267.435 48.3218 267.553 48.2956 267.701 48.2782C267.849 48.2521 268.027 48.2391 268.236 48.2391C268.453 48.2391 268.632 48.2521 268.771 48.2782C268.919 48.2956 269.036 48.3218 269.123 48.3566C269.21 48.3827 269.271 48.4218 269.306 48.474C269.341 48.5262 269.358 48.5872 269.358 48.6568V63.2622H275.415C275.493 63.2622 275.558 63.284 275.61 63.3275C275.671 63.3623 275.719 63.4189 275.754 63.4972C275.797 63.5668 275.828 63.6625 275.845 63.7843C275.863 63.9062 275.871 64.0541 275.871 64.2281Z" fill="#082E9B"/>
<circle cx="28.5" cy="36.5" r="28.5" fill="#4B23BD"/>
<path d="M35.4456 35.8369C35.313 35.8634 35.1274 35.8104 34.8623 35.7574C34.8623 35.7839 34.8888 35.8104 34.8888 35.8369C34.9684 36.1285 35.0214 36.4467 35.0214 36.7648C35.0214 37.2685 34.9153 37.7192 34.7032 38.1434C34.1995 39.1509 33.1656 39.8402 31.946 39.8402C30.3023 39.8402 28.9767 38.5676 28.8707 36.9239H27.5451C27.5451 36.9504 27.5451 36.9504 27.5451 36.9504C27.5451 36.9769 27.5451 37.0034 27.5451 37.0564C27.5451 37.136 27.5186 37.242 27.5186 37.3216C27.5186 37.3481 27.5186 37.3481 27.5186 37.3746C27.5186 37.4276 27.4921 37.4806 27.4921 37.5336C27.4921 37.5602 27.4656 37.6132 27.4656 37.6397C27.4391 37.7457 27.386 37.8518 27.3595 37.9578V37.9843C27.333 38.0374 27.3065 38.0904 27.28 38.1434C27.0414 38.6206 26.6967 39.0183 26.2725 39.3099C25.6893 39.8136 24.7349 39.8402 24.7349 39.8402C24.6818 39.8402 24.6023 39.8402 24.5493 39.8402C23.4093 39.8402 22.4284 39.2304 21.8981 38.329C21.8981 38.329 21.1823 37.3481 21.58 35.8104C22.0572 34.0076 23.6479 33.6895 24.6023 33.6629C23.7274 33.5304 23.1177 33.2918 22.4549 32.7085C21.8186 33.7425 21.2353 35.7043 21.2353 35.7043L21.1293 35.9164C20.9172 35.9164 20.546 36.0755 20.546 36.0755C20.0423 36.2876 19.6976 36.7648 19.6976 37.3481C19.6976 38.0904 20.3074 38.7002 21.0497 38.7002C21.1558 38.7002 21.2618 38.7002 21.3679 38.6737C21.3679 38.6737 22.0307 41.2188 24.4167 42.836H31.893C31.893 42.836 34.8623 41.0597 34.9949 38.4881C35.1274 38.5411 35.2865 38.5676 35.4456 38.5676C36.1879 38.5676 36.7976 37.9578 36.7976 37.2155C36.7976 36.4467 36.1879 35.8369 35.4456 35.8369ZM28.2874 41.1392C27.6511 41.1392 27.1209 40.5029 27.1209 39.7076C27.1209 39.575 27.1474 39.4425 27.1739 39.3099H29.4009C29.4274 39.4425 29.4539 39.575 29.4539 39.7076C29.4539 40.5029 28.9237 41.1392 28.2874 41.1392ZM30.1167 35.2271C29.7721 35.6513 29.56 36.1816 29.56 36.7648C29.56 37.5337 29.9311 38.2229 30.4879 38.6471C30.7 38.8062 30.9386 38.9388 31.1772 39.0183C31.4158 39.0978 31.6809 39.1509 31.946 39.1509C33.2716 39.1509 34.3321 38.0639 34.3321 36.7648C34.3321 36.2876 34.1995 35.8369 33.9344 35.4392C33.2716 35.1741 32.4763 34.803 31.6809 34.3788C31.0711 34.4583 30.5144 34.7499 30.1167 35.2271ZM30.8591 35.5453C31.3363 35.5453 31.7339 36.2081 31.7339 37.0299C31.7339 37.2685 31.7074 37.5071 31.6279 37.6927C31.5749 36.6057 30.1167 36.5262 30.0637 37.6927C30.0107 37.4806 29.9576 37.2685 29.9576 37.0299C29.9842 36.2081 30.3818 35.5453 30.8591 35.5453ZM27.5716 36.3141H28.9237C28.9502 36.2081 28.9502 36.102 28.9767 35.996C29.2153 35.015 29.9311 34.2197 30.8591 33.875C29.9046 33.2918 29.1888 32.7085 28.6851 32.0988C28.1549 31.4625 28.4465 35.015 28.4465 35.015C28.4465 35.015 26.6967 34.4583 25.6628 33.1592C25.6628 33.1592 25.1856 33.5039 24.6288 33.6629C27.227 33.716 27.5716 36.3141 27.5716 36.3141ZM24.4963 39.1774C24.7879 39.1774 25.0265 39.1243 25.2651 39.0448C25.5302 38.9653 25.7423 38.8327 25.9544 38.6737C26.0339 38.5941 26.1135 38.5411 26.193 38.4615C26.6172 38.0374 26.8823 37.4276 26.8823 36.7913C26.8823 36.2876 26.7232 35.8369 26.4581 35.4392C26.14 34.9885 25.6893 34.6439 25.1325 34.4848C24.9204 34.4318 24.7083 34.3788 24.4697 34.3788C23.3297 34.3788 22.3488 35.2006 22.1367 36.2876C22.1102 36.4467 22.0837 36.6057 22.0837 36.7913C22.0837 37.1625 22.1632 37.5071 22.3223 37.8253C22.72 38.6206 23.5418 39.1774 24.4963 39.1774ZM25.7423 35.6248C26.2195 35.6248 26.6172 36.2876 26.6172 37.1095C26.6172 37.3481 26.5907 37.5867 26.5111 37.7723C26.4581 36.6853 25 36.6057 24.947 37.7723C24.8939 37.5602 24.8409 37.3481 24.8409 37.1095C24.8409 36.2876 25.2386 35.6248 25.7423 35.6248Z" fill="white"/>
<path d="M41.1453 41.0064C41.2249 40.8738 41.3044 40.7147 41.3574 40.5822C41.7816 39.6012 41.596 38.7794 41.49 38.4878C41.3044 37.9575 41.1188 38.3022 41.0923 38.4082C40.5886 39.4687 39.9788 39.5747 39.6077 39.5217C38.3616 39.3626 38.7593 35.9426 38.8123 35.5715C38.8653 35.2003 38.8918 34.8026 38.9183 34.405C38.9714 32.6817 38.6002 31.0645 37.9374 29.6064C39.0244 28.864 40.1114 28.0952 41.1984 27.3529C42.5239 26.4515 43.823 25.5236 45.1486 24.6222C41.0923 21.7589 36.877 18.8692 32.7411 16.0059C31.177 14.9189 29.6393 13.8319 28.1016 12.7715C26.5904 13.8319 25.0793 14.8924 23.5946 15.9794C19.6179 18.8692 15.7207 21.7589 11.6644 24.5957C12.8839 25.4971 14.13 26.3719 15.3495 27.2733C16.4365 28.0687 17.5235 28.8375 18.6104 29.6064C17.9211 31.0645 17.55 32.7082 17.603 34.458C17.603 34.8557 17.656 35.2533 17.709 35.6245C17.709 35.6245 17.709 35.6245 17.709 35.651C17.7621 36.0222 18.1597 39.4422 16.9137 39.6013C16.5425 39.6543 15.9328 39.5482 15.4291 38.4878C15.376 38.3817 15.1904 38.0371 15.0314 38.5673C14.9253 38.8589 14.7663 39.6808 15.1904 40.6617C15.27 40.7943 15.323 40.9268 15.4025 41.0594C15.8267 41.8547 16.3304 42.5971 16.8872 43.2864L14.8988 45.8845L18.8491 57.7882H37.8844L41.596 45.8845L39.6077 43.2864C40.2174 42.5705 40.7211 41.8017 41.1453 41.0064ZM23.6212 20.2478C24.9467 19.7971 26.3518 19.5319 27.8365 19.5054C29.5597 19.4524 31.2035 19.691 32.7411 20.1947V24.4366C31.283 23.7738 29.6658 23.4026 27.9425 23.4557C26.4579 23.5087 25.0528 23.8533 23.7802 24.4366H23.6212V20.2478V20.2478ZM36.8239 56.4361H19.9095L16.357 45.8845H40.1114L36.8239 56.4361ZM39.9523 45.3278H16.6751L17.6295 44.0817L17.8416 43.8166H38.7328L38.9449 44.0817L39.9523 45.3278ZM36.8239 42.8357H34.3584H31.7867H31.0444L25.3974 42.8622H24.8407H22.269H19.7504C17.4704 43.0478 16.463 40.5026 16.463 40.5026C17.4705 40.8473 17.9211 40.7147 18.6104 39.9724C18.743 39.8133 18.849 39.4952 18.9021 39.0975C19.0876 37.878 18.9816 35.8631 18.9021 34.9882C18.9021 34.8822 18.8756 34.7496 18.8756 34.6436V34.6171C18.8756 34.6171 18.8756 34.6171 18.8756 34.5905V34.564C18.8756 34.511 18.8756 34.4315 18.8756 34.3785C18.8225 32.9203 19.1142 31.5417 19.6709 30.2957C21.1025 27.0878 24.2574 24.7812 28.0221 24.6752C31.9723 24.5692 35.4188 26.8757 36.93 30.2957C37.4072 31.3826 37.6988 32.5757 37.7253 33.8217C37.7253 34.0603 37.7253 34.2989 37.7253 34.5375C37.7253 34.5375 37.7253 34.5375 37.7253 34.564C37.7253 34.7231 37.6988 34.8822 37.6988 35.0412C37.6458 35.9692 37.5397 37.931 37.7253 39.0975C37.7783 39.4952 37.8844 39.7868 38.017 39.9459C38.7063 40.6882 39.157 40.8208 40.1644 40.4761C40.1114 40.4761 39.1039 43.0212 36.8239 42.8357Z" fill="white"/>
<path d="M45.1487 24.6753L43.9291 28.9437H46.3947L45.1487 24.6753Z" fill="white"/>
<path d="M21.305 54.5592C21.8504 54.5592 22.2926 54.1171 22.2926 53.5716C22.2926 53.0262 21.8504 52.584 21.305 52.584C20.7595 52.584 20.3174 53.0262 20.3174 53.5716C20.3174 54.1171 20.7595 54.5592 21.305 54.5592Z" fill="#FF2400"/>
<path d="M24.8313 54.5592C25.3768 54.5592 25.8189 54.1171 25.8189 53.5716C25.8189 53.0262 25.3768 52.584 24.8313 52.584C24.2859 52.584 23.8437 53.0262 23.8437 53.5716C23.8437 54.1171 24.2859 54.5592 24.8313 54.5592Z" fill="#FF2400"/>
<path d="M28.3595 54.5592C28.9049 54.5592 29.3471 54.1171 29.3471 53.5716C29.3471 53.0262 28.9049 52.584 28.3595 52.584C27.814 52.584 27.3719 53.0262 27.3719 53.5716C27.3719 54.1171 27.814 54.5592 28.3595 54.5592Z" fill="#FF2400"/>
<path d="M31.8858 54.5592C32.4313 54.5592 32.8734 54.1171 32.8734 53.5716C32.8734 53.0262 32.4313 52.584 31.8858 52.584C31.3404 52.584 30.8982 53.0262 30.8982 53.5716C30.8982 54.1171 31.3404 54.5592 31.8858 54.5592Z" fill="#FF2400"/>
<path d="M35.413 54.5592C35.9585 54.5592 36.4007 54.1171 36.4007 53.5716C36.4007 53.0262 35.9585 52.584 35.413 52.584C34.8676 52.584 34.4254 53.0262 34.4254 53.5716C34.4254 54.1171 34.8676 54.5592 35.413 54.5592Z" fill="#FF2400"/>
<path d="M24.5902 52.443C25.1746 52.443 25.6483 51.9692 25.6483 51.3848C25.6483 50.8004 25.1746 50.3267 24.5902 50.3267C24.0057 50.3267 23.532 50.8004 23.532 51.3848C23.532 51.9692 24.0057 52.443 24.5902 52.443Z" fill="#FF7F00"/>
<path d="M20.8105 52.443C21.395 52.443 21.8687 51.9692 21.8687 51.3848C21.8687 50.8004 21.395 50.3267 20.8105 50.3267C20.2261 50.3267 19.7524 50.8004 19.7524 51.3848C19.7524 51.9692 20.2261 52.443 20.8105 52.443Z" fill="#FF7F00"/>
<path d="M28.3669 52.443C28.9514 52.443 29.4251 51.9692 29.4251 51.3848C29.4251 50.8004 28.9514 50.3267 28.3669 50.3267C27.7825 50.3267 27.3088 50.8004 27.3088 51.3848C27.3088 51.9692 27.7825 52.443 28.3669 52.443Z" fill="#FF7F00"/>
<path d="M32.1456 52.443C32.73 52.443 33.2038 51.9692 33.2038 51.3848C33.2038 50.8004 32.73 50.3267 32.1456 50.3267C31.5612 50.3267 31.0874 50.8004 31.0874 51.3848C31.0874 51.9692 31.5612 52.443 32.1456 52.443Z" fill="#FF7F00"/>
<path d="M35.9243 52.443C36.5087 52.443 36.9825 51.9692 36.9825 51.3848C36.9825 50.8004 36.5087 50.3267 35.9243 50.3267C35.3399 50.3267 34.8661 50.8004 34.8661 51.3848C34.8661 51.9692 35.3399 52.443 35.9243 52.443Z" fill="#FF7F00"/>
<path d="M20.3282 50.1021C21.0357 50.1021 21.6092 49.5395 21.6092 48.8455C21.6092 48.1515 21.0357 47.5889 20.3282 47.5889C19.6208 47.5889 19.0473 48.1515 19.0473 48.8455C19.0473 49.5395 19.6208 50.1021 20.3282 50.1021Z" fill="#00BDFF"/>
<path d="M24.3091 50.1582C25.0166 50.1582 25.5901 49.5956 25.5901 48.9016C25.5901 48.2076 25.0166 47.645 24.3091 47.645C23.6017 47.645 23.0282 48.2076 23.0282 48.9016C23.0282 49.5956 23.6017 50.1582 24.3091 50.1582Z" fill="#00BDFF"/>
<path d="M28.3364 50.1582C29.0439 50.1582 29.6174 49.5956 29.6174 48.9016C29.6174 48.2076 29.0439 47.645 28.3364 47.645C27.629 47.645 27.0555 48.2076 27.0555 48.9016C27.0555 49.5956 27.629 50.1582 28.3364 50.1582Z" fill="#00BDFF"/>
<path d="M32.3628 50.1582C33.0702 50.1582 33.6437 49.5956 33.6437 48.9016C33.6437 48.2076 33.0702 47.645 32.3628 47.645C31.6553 47.645 31.0818 48.2076 31.0818 48.9016C31.0818 49.5956 31.6553 50.1582 32.3628 50.1582Z" fill="#00BDFF"/>
<path d="M36.3901 50.1582C37.0976 50.1582 37.6711 49.5956 37.6711 48.9016C37.6711 48.2076 37.0976 47.645 36.3901 47.645C35.6827 47.645 35.1092 48.2076 35.1092 48.9016C35.1092 49.5956 35.6827 50.1582 36.3901 50.1582Z" fill="#00BDFF"/>
</svg>
